<svg width="46" height="46" viewBox="0 0 46 46" fill="none" xmlns="http://www.w3.org/2000/svg">
<g clip-path="url(#clip0_6_218)">
<path d="M23.1163 29.7601C26.9591 29.7601 30.0743 26.6449 30.0743 22.8021C30.0743 18.9592 26.9591 15.844 23.1163 15.844C19.2734 15.844 16.1582 18.9592 16.1582 22.8021C16.1582 26.6449 19.2734 29.7601 23.1163 29.7601Z" stroke="#65644D" stroke-width="2.22658" stroke-miterlimit="10"/>
<path d="M31.467 6.10278H14.7676C10.1562 6.10278 6.41797 9.84106 6.41797 14.4525V31.1518C6.41797 35.7632 10.1562 39.5015 14.7676 39.5015H31.467C36.0784 39.5015 39.8167 35.7632 39.8167 31.1518V14.4525C39.8167 9.84106 36.0784 6.10278 31.467 6.10278Z" stroke="#65644D" stroke-width="2.22658" stroke-linecap="round" stroke-linejoin="round"/>
<path d="M34.1795 13.7566C34.1795 14.871 33.2761 15.7744 32.1616 15.7744C31.0472 15.7744 30.1438 14.871 30.1438 13.7566C30.1438 12.6422 31.0472 11.7388 32.1616 11.7388C33.2761 11.7388 34.1795 12.6422 34.1795 13.7566Z" fill="#65644D" stroke="#65644D" stroke-width="0.139161"/>
</g>
<defs>
<clipPath id="clip0_6_218">
<rect width="44.5316" height="44.5316" fill="white" transform="translate(0.851562 0.536377)"/>
</clipPath>
</defs>
</svg>
