<svg width="46" height="45" viewBox="0 0 46 45" fill="none" xmlns="http://www.w3.org/2000/svg">
<g clip-path="url(#clip0_6_223)">
<path d="M29.4484 26.4342C29.6411 26.3059 29.8628 26.2278 30.0933 26.2068C30.3239 26.1859 30.556 26.2228 30.7687 26.3142L38.9722 29.9898C39.2487 30.1079 39.4795 30.3124 39.63 30.5727C39.7805 30.833 39.8427 31.135 39.8072 31.4336C39.5369 33.4532 38.5424 35.306 37.0084 36.6473C35.4745 37.9886 33.5056 38.7272 31.468 38.7256C25.1936 38.7256 19.1763 36.2331 14.7396 31.7965C10.303 27.3599 7.81055 21.3425 7.81055 15.0682C7.80899 13.0305 8.54754 11.0617 9.88886 9.52772C11.2302 7.99379 13.0829 6.99921 15.1026 6.72896C15.4012 6.69349 15.7032 6.75567 15.9634 6.90618C16.2237 7.0567 16.4282 7.28746 16.5464 7.56392L20.222 15.7744C20.3123 15.9853 20.3491 16.2153 20.329 16.4438C20.309 16.6723 20.2328 16.8923 20.1072 17.0843L16.3898 21.5044C16.258 21.7034 16.18 21.9332 16.1635 22.1713C16.1471 22.4094 16.1927 22.6477 16.2959 22.863C17.7345 25.808 20.7786 28.8156 23.7323 30.2402C23.9487 30.343 24.1881 30.3876 24.427 30.3696C24.6658 30.3516 24.8959 30.2716 25.0944 30.1376L29.4484 26.4342Z" stroke="#65644D" stroke-width="2.22658" stroke-linecap="round" stroke-linejoin="round"/>
</g>
<defs>
<clipPath id="clip0_6_223">
<rect width="44.5316" height="44.5316" fill="white" transform="translate(0.851562 0.0395508)"/>
</clipPath>
</defs>
</svg>
