<svg width="46" height="45" viewBox="0 0 46 45" fill="none" xmlns="http://www.w3.org/2000/svg">
<g clip-path="url(#clip0_6_213)">
<path d="M14.768 23.4933L30.4689 37.2581C30.6497 37.4176 30.869 37.5275 31.1051 37.5768C31.3411 37.6261 31.586 37.6132 31.8156 37.5393C32.0452 37.4655 32.2517 37.3332 32.4148 37.1555C32.5779 36.9778 32.692 36.7608 32.7459 36.5257L39.817 5.81111C39.8239 5.78031 39.8223 5.74822 39.8124 5.71826C39.8024 5.68831 39.7845 5.66162 39.7606 5.64107C39.7366 5.62051 39.7075 5.60686 39.6764 5.60158C39.6453 5.59629 39.6133 5.59957 39.5839 5.61107L4.33092 19.4072C4.11207 19.4914 3.92645 19.6443 3.80192 19.843C3.67739 20.0417 3.62067 20.2755 3.64027 20.5092C3.65987 20.7428 3.75474 20.9638 3.91064 21.139C4.06654 21.3142 4.27505 21.4341 4.50487 21.4807L14.768 23.4933Z" stroke="#65644D" stroke-width="2.22658" stroke-linecap="round" stroke-linejoin="round"/>
<path d="M14.7676 23.4937L39.714 5.61499" stroke="#65644D" stroke-width="2.22658" stroke-linecap="round" stroke-linejoin="round"/>
<path d="M22.4858 30.2619L17.1612 35.7866C16.9688 35.9862 16.7211 36.1238 16.45 36.1817C16.1789 36.2396 15.8966 36.2153 15.6394 36.1117C15.3823 36.0082 15.1619 35.8302 15.0065 35.6005C14.8512 35.3709 14.768 35.1001 14.7676 34.8229V23.4934" stroke="#65644D" stroke-width="2.22658" stroke-linecap="round" stroke-linejoin="round"/>
</g>
<defs>
<clipPath id="clip0_6_213">
<rect width="44.5316" height="44.5316" fill="white" transform="translate(0.851562 0.032959)"/>
</clipPath>
</defs>
</svg>
