<svg width="199" height="49" viewBox="0 0 199 49" fill="none" xmlns="http://www.w3.org/2000/svg">
<g clip-path="url(#clip0_6_261)">
<path fill-rule="evenodd" clip-rule="evenodd" d="M65.6209 23.8803C66.087 25.1456 65.9185 25.6186 65.6546 26.9365C69.2335 26.3245 71.8176 25.7188 75.7209 25.7188C79.5596 25.7188 82.235 26.2907 85.788 26.9385C85.4714 25.4049 85.3464 25.4229 85.8139 23.9501C84.525 23.1363 77.6508 22.6066 75.7202 22.6066C72.2817 22.608 68.8172 23.0713 65.6209 23.8803ZM64.9813 28.1361C65.729 28.1182 68.6964 27.4647 69.958 27.2877C71.2195 27.1107 73.0644 26.9372 74.6082 26.895C76.894 26.8321 79.1742 26.9621 81.486 27.287C82.4386 27.4205 85.6104 28.0442 86.3398 28.1327C86.3433 27.4585 86.5005 27.5076 85.7185 27.3251C79.3525 25.8378 73.3607 25.6946 66.9287 27.0644C64.8704 27.4239 64.9813 27.3327 64.9813 28.1361ZM55.525 16.1147C56.1716 15.7226 57.5826 15.0318 58.4419 15.8816C58.6841 15.4011 58.3563 15.2441 59.5497 14.8839C59.4662 15.6175 59.4241 16.6754 60.0341 17.1608C61.0338 17.1235 61.4487 16.7874 61.3252 15.7779C61.1131 15.3001 61.024 15.2573 60.7123 14.9364C61.7106 14.7484 61.7534 15.0609 62.2104 15.4965C62.6927 14.6799 63.3709 14.7926 64.273 14.635C64.2456 15.9183 64.4576 16.0483 63.8328 16.8379C64.6865 17.0785 64.579 17.4989 64.7918 18.1371C64.2449 17.8377 64.1185 17.5148 63.1216 17.6351C62.2631 18.0604 61.6158 18.5133 62.4596 19.4924C63.8321 21.0834 67.6827 22.05 68.2766 17.7949C68.945 18.4296 69.6414 19.4619 71.3325 19.1937C72.4417 19.018 73.3263 17.9788 73.5959 17.0004L74.2263 17.0011C73.8612 18.3314 73.0637 19.1141 71.8675 19.5477C70.554 20.0241 68.9969 19.3617 68.549 18.5458C68.1805 21.0018 66.5342 21.4139 64.0694 20.9202C64.9139 21.49 64.9567 21.1422 64.9841 22.2471C64.2182 21.6054 62.8233 20.3774 62.122 19.6652C61.6965 19.2324 61.8264 19.1639 61.7092 18.5292C61.4859 18.0832 61.7155 18.3404 61.3813 18.0486C60.0545 17.6421 60.8204 18.5043 59.2338 17.4975C57.867 16.6305 57.028 16.3041 55.525 16.1147ZM72.6053 15.1598H78.7151C78.9516 15.1598 79.1447 15.3499 79.1447 15.5822C79.1447 15.8153 78.9516 16.0054 78.7151 16.0054H72.6053C72.3694 16.0054 72.1764 15.8153 72.1764 15.5822C72.1757 15.3499 72.3687 15.1598 72.6053 15.1598ZM73.2273 16.1962H78.0924C78.2384 16.1962 78.3577 16.3138 78.3577 16.4569C78.3577 16.6007 78.2384 16.7183 78.0924 16.7183H73.2273C73.082 16.7183 72.9626 16.6007 72.9626 16.4569C72.9626 16.3138 73.082 16.1962 73.2273 16.1962ZM73.2273 14.4026H78.0924C78.2384 14.4026 78.3577 14.5202 78.3577 14.664C78.3577 14.8078 78.2384 14.9254 78.0924 14.9254H73.2273C73.082 14.9254 72.9626 14.8078 72.9626 14.664C72.9626 14.5202 73.082 14.4026 73.2273 14.4026ZM77.3349 14.209C77.0267 13.1152 78.0938 10.5796 79.6186 10.3874C81.6327 10.0846 82.5285 11.8678 81.2978 13.4989C81.05 11.0457 78.9397 10.9682 77.9941 13.649C77.8684 13.9656 77.8523 14.0929 77.7645 14.1399C77.695 14.1765 77.5511 14.1814 77.3349 14.209ZM66.7722 16.8988C66.3559 16.8988 66.0189 17.2362 66.0189 17.6524C66.0189 18.0687 66.3566 18.4061 66.7722 18.4061C67.1878 18.4061 67.5255 18.0687 67.5255 17.6524C67.5255 17.2362 67.1878 16.8988 66.7722 16.8988ZM69.263 16.2101C68.8467 16.2101 68.5097 16.5475 68.5097 16.9637C68.5097 17.38 68.8474 17.7174 69.263 17.7174C69.6793 17.7174 70.0162 17.38 70.0162 16.9637C70.0162 16.5475 69.6786 16.2101 69.263 16.2101ZM67.5865 14.9973C67.1702 14.9973 66.8333 15.3347 66.8333 15.751C66.8333 16.1672 67.1702 16.5046 67.5865 16.5046C68.0028 16.5046 68.3398 16.1672 68.3398 15.751C68.3405 15.3347 68.0028 14.9973 67.5865 14.9973ZM84.7314 16.8988C85.1477 16.8988 85.4847 17.2362 85.4847 17.6524C85.4847 18.0687 85.147 18.4061 84.7314 18.4061C84.3151 18.4061 83.9781 18.0687 83.9781 17.6524C83.9781 17.2362 84.3151 16.8988 84.7314 16.8988ZM82.2406 16.2101C82.6569 16.2101 82.9939 16.5475 82.9939 16.9637C82.9939 17.38 82.6562 17.7174 82.2406 17.7174C81.8243 17.7174 81.4874 17.38 81.4874 16.9637C81.4874 16.5475 81.8243 16.2101 82.2406 16.2101ZM83.9164 14.9973C84.3327 14.9973 84.6696 15.3347 84.6696 15.751C84.6696 16.1672 84.3327 16.5046 83.9164 16.5046C83.5001 16.5046 83.1631 16.1672 83.1631 15.751C83.1631 15.3347 83.5008 14.9973 83.9164 14.9973ZM91.0293 18.2561C91.4456 18.2561 91.7826 18.5935 91.7826 19.0097C91.7826 19.426 91.4449 19.7634 91.0293 19.7634C90.613 19.7634 90.2753 19.426 90.2753 19.0097C90.2753 18.5935 90.613 18.2561 91.0293 18.2561ZM60.6287 18.2561C61.045 18.2561 61.382 18.5935 61.382 19.0097C61.382 19.426 61.045 19.7634 60.6287 19.7634C60.2124 19.7634 59.8755 19.426 59.8755 19.0097C59.8755 18.5935 60.2124 18.2561 60.6287 18.2561ZM96.0397 16.1147C95.3931 15.7226 93.982 15.0318 93.1227 15.8816C92.8805 15.4011 93.2084 15.2441 92.0149 14.8839C92.0985 15.6175 92.1406 16.6754 91.5305 17.1608C90.5309 17.1235 90.116 16.7874 90.2395 15.7779C90.4515 15.3001 90.5407 15.2573 90.8524 14.9364C89.8541 14.7484 89.8113 15.0609 89.3543 15.4965C88.872 14.6799 88.1938 14.7926 87.2917 14.635C87.3191 15.9183 87.1071 16.0483 87.7319 16.8379C86.8782 17.0785 86.9856 17.4989 86.7729 18.1371C87.3198 17.8377 87.4462 17.5148 88.443 17.6351C89.3016 18.0604 89.9489 18.5133 89.1051 19.4924C87.7326 21.0834 83.882 22.05 83.2881 17.7949C82.6197 18.4296 81.9233 19.4619 80.2321 19.1937C79.1229 19.018 78.2384 17.9788 77.9688 17.0004L77.3384 17.0011C77.7034 18.3314 78.5009 19.1141 79.6972 19.5477C81.0107 20.0241 82.5678 19.3617 83.0157 18.5458C83.3842 21.0018 85.0305 21.4139 87.4953 20.9202C86.6508 21.49 86.6079 21.1422 86.5806 22.2471C87.3465 21.6054 88.7414 20.3774 89.4427 19.6652C89.8682 19.2324 89.7383 19.1639 89.8555 18.5292C90.0788 18.0832 89.8492 18.3404 90.1834 18.0486C91.5102 17.6421 90.7443 18.5043 92.3309 17.4975C93.6984 16.6305 94.5373 16.3041 96.0397 16.1147ZM74.1947 14.209C74.5029 13.1152 73.4358 10.5796 71.911 10.3874C69.8969 10.0846 69.0011 11.8678 70.2318 13.4989C70.4796 11.0457 72.5899 10.9682 73.5355 13.649C73.6612 13.9656 73.6773 14.0929 73.7651 14.1399C73.8346 14.1765 73.9785 14.1814 74.1947 14.209ZM75.0968 14.0818C75.5145 14.097 76.027 14.0777 76.4447 14.0929C76.4791 13.5363 76.4243 11.4377 77.2036 10.3632C77.7652 9.5881 78.4932 9.6282 79.3476 9.08541C78.5824 8.78394 78.3865 8.39881 77.8565 8.04341C76.6967 9.21955 76.0389 8.45827 76.9123 7.4944L77.252 7.12517C76.239 5.31012 76.2516 5.12274 75.7974 3C75.3924 4.93674 75.2421 5.23959 74.1912 7.12517C74.4081 7.44046 74.1336 7.07676 74.4418 7.40728C75.1059 8.11946 75.1403 8.21419 74.6938 8.56476C74.1736 8.88005 73.8697 8.33174 73.5854 8.0441C73.1501 8.33658 72.5906 8.81368 72.0928 9.19535C74.9066 9.95318 75.0533 11.5691 75.0968 14.0818ZM75.3706 17.947C75.4197 18.4483 74.8146 18.9254 74.9066 19.4301C74.9992 19.9363 75.4745 20.3207 75.7953 20.6982C76.0993 20.2924 76.576 19.9736 76.675 19.4301C76.7669 18.9254 76.1611 18.4483 76.2109 17.947C76.4995 18.4123 76.7747 18.8901 77.8614 19.2421C77.4718 18.6834 76.5303 17.4097 76.5093 16.9983H75.7925H75.789H75.0722C75.0512 17.4097 74.1098 18.6834 73.7201 19.2421C74.8069 18.8901 75.0821 18.413 75.3706 17.947ZM71.944 20.6927C71.9482 20.4998 71.9566 20.4839 71.944 20.264C70.7105 20.7107 69.7228 20.2986 68.8228 19.8533C68.7049 19.9999 68.7435 19.9543 68.5946 20.1575L68.1594 20.7148C67.1429 21.8059 66.5314 21.5245 65.875 21.6462L65.3506 21.8723C64.8486 22.6841 66.0498 22.0431 66.1368 22.0078C66.7006 21.7755 67.861 21.9753 68.5581 20.9679L69.1514 21.4381L69.5606 20.9347C69.5747 20.8718 69.614 20.8614 69.6442 20.8275C71.3971 21.6808 71.9953 20.9748 73.4225 20.4044C73.9069 21.8108 74.8441 20.5952 74.2298 20.2509C73.6921 19.9065 72.5351 20.497 71.944 20.6927ZM79.4992 20.692C78.8372 20.4777 77.6852 19.7925 77.1201 20.3207C76.5746 20.8303 77.6985 21.9145 78.0208 20.403C79.4592 20.9714 80.025 21.6856 81.7991 20.8275C81.9816 21.0336 82.162 21.2756 82.341 21.49L82.8753 20.9541C83.2579 21.5231 83.7753 21.7264 84.7595 21.8855C85.173 21.9525 86.5427 22.6094 86.0906 21.8751C85.7346 21.2963 84.5503 22.1593 83.2066 20.6298L82.6197 19.8512C81.6825 20.3145 80.7306 20.6754 79.4985 20.2633L79.4992 20.692ZM64.9813 23.4875C65.729 23.4696 68.6964 22.8161 69.958 22.6391C71.2195 22.4621 73.0644 22.2886 74.6082 22.2457C76.894 22.1828 79.1742 22.3128 81.486 22.6378C82.4386 22.7712 85.6104 23.3949 86.3398 23.4834C86.3433 22.8092 86.5005 22.8583 85.7185 22.6758C79.3525 21.1878 73.3607 21.0454 66.9287 22.4151C64.8704 22.7754 64.9813 22.6848 64.9813 23.4875ZM16.189 25.5377C16.4341 25.5723 16.6756 25.6027 16.9114 25.6283C17.1234 25.6511 17.3348 25.6711 17.5447 25.6877C18.0108 25.4803 18.491 25.5003 18.9859 25.7472C20.5879 25.8122 21.9148 25.7423 22.9664 25.5391C23.9998 25.3385 24.7566 25.0108 25.2354 24.5558C26.5573 23.3223 27.5654 21.8668 28.2611 20.188L28.2688 20.1707C28.7504 19.0823 29.0439 17.9242 29.1471 16.6982L29.1478 16.692C29.1632 16.2287 29.1246 15.7703 29.0326 15.3195C28.9393 14.8638 28.7897 14.4123 28.584 13.9649C28.3762 13.5127 28.1382 13.0847 27.8715 12.6816C27.6054 12.2806 27.3106 11.9024 26.9869 11.549C26.8999 11.4647 26.8023 11.3782 26.6935 11.2911C26.5812 11.2012 26.4506 11.1037 26.3017 11.0007C26.0413 10.8064 25.7556 10.619 25.4881 10.4317C24.7173 10.0285 23.9268 9.74229 23.1159 9.57358L23.1075 9.5715C22.2974 9.40348 21.4662 9.3537 20.6153 9.42146C19.7575 9.48991 18.9831 9.63442 18.293 9.85499C17.6078 10.0742 17.0055 10.3687 16.4867 10.7373C15.9525 11.1169 15.4961 11.4737 15.1178 11.8076C14.745 12.1368 14.4473 12.4445 14.2255 12.73C14.0015 13.0184 13.7895 13.3295 13.5908 13.6621C13.3922 13.9933 13.2061 14.3473 13.0327 14.7228C12.8095 15.2822 12.6466 15.827 12.5441 16.3587C12.4416 16.8884 12.3988 17.4042 12.4142 17.9055C12.4655 18.2872 12.5378 18.6405 12.6319 18.9641C12.7252 19.2856 12.839 19.5746 12.9724 19.8291C13.1072 20.0863 13.2679 20.3339 13.4532 20.571C13.6358 20.804 13.8443 21.0281 14.0781 21.2431L14.5238 21.5363C14.9078 21.7161 15.2961 21.8516 15.6864 21.9422C16.0795 22.0334 16.4748 22.0798 16.8728 22.0798C17.6598 22.0798 18.4573 21.8654 19.266 21.4367C19.6514 21.1608 19.9842 20.9071 20.2643 20.6775C20.5472 20.4452 20.7845 20.2308 20.9741 20.0352C21.1552 19.8485 21.3216 19.6293 21.4718 19.3783C21.6234 19.1259 21.7589 18.8396 21.8776 18.5216L21.8797 18.5154C21.9499 18.3093 22.0355 18.1053 22.1359 17.9034C22.15 17.799 22.1633 17.6787 22.1752 17.5446C22.1893 17.3848 22.2005 17.2189 22.2082 17.0488C22.2159 16.8822 22.2061 16.7003 22.1773 16.5053C22.1479 16.3076 22.0994 16.096 22.032 15.872C21.9709 15.668 21.8797 15.493 21.7596 15.3492C21.6389 15.2047 21.4879 15.0885 21.3082 15C21.2766 14.9848 21.2507 14.9634 21.2289 14.9385C21.1461 14.8417 21.0702 14.7629 21.0021 14.7027C20.9383 14.6467 20.8807 14.6059 20.8294 14.581L20.807 14.5686C20.6385 14.4628 20.4616 14.3909 20.2784 14.3528C20.0993 14.3162 19.9126 14.3114 19.7188 14.339C19.4472 14.4102 19.2113 14.4669 19.0119 14.5098C18.8013 14.5548 18.6202 14.5872 18.4713 14.6052C18.3351 14.6218 18.2109 14.5257 18.1947 14.3916C18.1814 14.2844 18.2404 14.1855 18.3337 14.1413C18.644 13.9629 18.9628 13.8177 19.2899 13.7057L19.3025 13.7015C19.6339 13.5895 19.9751 13.51 20.3233 13.465C20.6827 13.4187 21.0302 13.4208 21.3637 13.4726C21.6993 13.5245 22.0215 13.6261 22.3276 13.7769C22.3458 13.7859 22.3627 13.7969 22.3781 13.8101L23.123 14.4386C23.1419 14.4545 23.1581 14.4732 23.1707 14.4925C23.3596 14.7726 23.5007 15.0671 23.5912 15.3741C23.6825 15.6818 23.7239 16.0019 23.7141 16.3325C23.7049 16.6567 23.6509 16.9976 23.5526 17.3523C23.4557 17.7029 23.316 18.0666 23.1342 18.4428C22.7874 19.2856 22.3374 20.0199 21.7856 20.6436C21.2296 21.2728 20.5704 21.7907 19.8094 22.1973L19.7954 22.2042C19.0386 22.6066 18.2418 22.8687 17.4071 22.9897C16.571 23.1107 15.6955 23.0906 14.7815 22.9289C14.7555 22.924 14.7309 22.9157 14.7092 22.9046C13.5571 22.3024 12.6101 21.6711 11.8674 21.0115C11.4784 20.6657 11.1766 20.2564 10.9632 19.7835C10.7519 19.316 10.6269 18.7871 10.5897 18.1987L10.5911 18.1558C10.6634 17.5695 10.7673 17.0087 10.9028 16.4749C11.0383 15.9397 11.2061 15.4315 11.4054 14.9503L11.4153 14.9295C11.7586 14.1323 12.1735 13.4097 12.6593 12.7625C13.15 12.1098 13.7144 11.5311 14.3525 11.0284L14.3638 11.0201C15.374 10.3086 16.4046 9.76096 17.4527 9.37859C18.5029 8.99553 19.5735 8.77634 20.6638 8.7231C21.7512 8.66986 22.8197 8.7632 23.8692 9.00382C24.9166 9.24376 25.9479 9.63166 26.9602 10.1661L26.9659 10.1696C27.7219 10.5948 28.4443 11.0927 29.1302 11.6617L29.1541 11.6846C29.5409 12.1008 29.8701 12.5682 30.1418 13.0854C30.4128 13.6006 30.6255 14.1641 30.7807 14.7746C30.9351 15.3824 31.0278 16.0137 31.0601 16.6685C31.0917 17.3185 31.0622 17.9926 30.9716 18.6882L30.9632 18.7262C30.874 19.0263 30.7744 19.3202 30.6655 19.6071C30.5546 19.8989 30.4367 20.1762 30.3131 20.4369L30.2907 20.4749C29.1899 22.3868 27.7655 23.8754 26.0167 24.941C24.388 25.9332 22.4785 26.5569 20.291 26.8106C20.6652 27.2089 21.0408 27.6141 21.4184 28.0262L21.4304 28.0407C21.9316 28.587 22.4336 29.1422 22.9355 29.705L22.939 29.7092C24.0798 30.9794 24.6127 32.2758 24.5383 33.5972C24.5017 34.2492 24.3642 34.9158 24.1269 35.5941C23.8917 36.2668 23.5554 36.9569 23.1195 37.6643C22.6856 38.3681 22.1738 39.0299 21.5862 39.6487C20.9993 40.2669 20.338 40.8414 19.603 41.3711C19.0835 41.8115 18.5275 42.2174 17.9364 42.588C17.3411 42.9607 16.7107 43.2982 16.0451 43.5996L16.0269 43.6072C15.4337 43.8202 14.8201 44.0034 14.1869 44.1583C13.5529 44.3132 12.9001 44.439 12.2296 44.5358C11.5536 44.6333 10.9126 44.6755 10.3082 44.6624C9.70934 44.6492 9.14702 44.5815 8.62331 44.4584C7.79772 44.4211 7.01426 44.2959 6.27573 44.0829C5.53088 43.8686 4.86676 43.5823 4.28478 43.2262C3.61154 42.9026 3.01201 42.4995 2.48619 42.0176C1.95897 41.5343 1.50686 40.9721 1.13128 40.3312C0.756394 39.6909 0.479094 39.0216 0.300779 38.3232C0.12457 37.6345 0.0452413 36.9154 0.0606859 36.168C-0.0291735 35.554 -0.0193451 34.942 0.0908731 34.3329C0.201793 33.7202 0.413103 33.1104 0.725505 32.504C1.0358 31.9017 1.43104 31.3085 1.90982 30.7256L1.92316 30.7111C2.39984 30.133 2.95865 29.5626 3.6003 29.0011C3.61645 28.9873 3.634 28.9755 3.65225 28.9659C3.90569 28.8158 4.16052 28.6478 4.41676 28.4625C4.67862 28.273 4.93977 28.0677 5.19812 27.8471C5.21988 27.8284 5.24445 27.8139 5.27043 27.8042C5.86294 27.574 6.46106 27.3873 7.06481 27.2442C7.66504 27.1017 8.26948 27.0035 8.87533 26.9503C10.1053 26.8417 11.5374 27.1453 13.171 27.8602L13.2026 27.8768C14.6207 28.7584 15.3859 29.9304 15.499 31.3908C15.5537 32.1057 15.4849 32.8324 15.2919 33.5709C15.1002 34.3045 14.7857 35.0471 14.3504 35.798C14.3315 35.8312 14.3048 35.8589 14.2746 35.8789C14.0043 36.0795 13.7565 36.2821 13.5319 36.486L13.1837 36.8089L12.8221 37.1595C12.8088 37.1726 12.794 37.1837 12.7786 37.1934C12.1011 37.6843 11.5009 38.0632 10.9779 38.3294C10.7027 38.4698 10.4079 38.579 10.0948 38.6579L10.0821 38.662C9.77393 38.7381 9.44468 38.7858 9.09437 38.8038C9.03891 38.8065 8.98696 38.7913 8.94413 38.763C8.92167 38.7491 8.81847 38.7284 8.63524 38.7035C8.42112 38.6738 8.12066 38.6461 7.73524 38.6205C7.33649 38.5942 6.99109 38.5555 6.69975 38.5064C6.40139 38.456 6.15358 38.3917 5.95841 38.3156L5.92261 38.2983C5.82573 38.2416 5.72815 38.1739 5.62916 38.0957C5.52737 38.0155 5.43119 37.9312 5.34203 37.8433C5.30763 37.8095 5.28587 37.7687 5.27534 37.7251C5.20303 37.5059 5.15459 37.2833 5.13142 37.0599C5.10685 36.8269 5.10896 36.5932 5.13774 36.3581C5.16933 36.0995 5.27043 35.8499 5.44032 35.6107C5.60178 35.3846 5.82713 35.1661 6.11496 34.9586L6.12479 34.9517C6.44 34.7215 6.76013 34.5859 7.08236 34.5465C7.4074 34.5064 7.73103 34.5638 8.05186 34.7173C8.15295 34.7464 8.23508 34.7913 8.29757 34.8521C8.38251 34.9344 8.42463 35.0368 8.42463 35.1564C8.42463 35.24 8.38181 35.314 8.31722 35.3583L7.36668 36.1465C7.34 36.2067 7.32385 36.262 7.31964 36.3118C7.31473 36.3609 7.32175 36.4051 7.3393 36.4445L7.34421 36.4515C7.36668 36.4943 7.42775 36.5566 7.52534 36.6368C7.64117 36.7322 7.80544 36.8442 8.01535 36.9728L8.49343 37.1139C8.85638 37.1443 9.23828 37.1367 9.63844 37.0917C10.0526 37.0454 10.4837 36.9583 10.9281 36.8318C11.8049 36.5828 12.4943 36.1942 12.9955 35.668L13.0194 35.6466C13.4708 35.2324 13.8232 34.7961 14.0745 34.3384C14.3252 33.882 14.4754 33.4036 14.5252 32.905C14.5765 32.3906 14.5786 31.9294 14.5323 31.5221C14.4866 31.1259 14.394 30.7823 14.2557 30.4933C14.1132 30.1966 13.9524 29.9373 13.7734 29.7161C13.6049 29.5073 13.4203 29.333 13.2202 29.1927C12.6817 28.9984 12.0148 28.876 11.2208 28.8262C10.7975 28.7992 10.3131 28.7757 9.76972 28.7543C9.22424 28.7328 8.61839 28.7135 7.95427 28.6969C7.14905 28.9859 6.4028 29.3081 5.71551 29.6628L5.70217 29.6691C5.02331 30.021 4.40062 30.4068 3.83548 30.8265C3.72035 30.9717 3.54274 31.1861 3.30405 31.4689C3.07308 31.7427 2.77542 32.0905 2.41177 32.5109C2.0762 32.8988 1.80031 33.3766 1.58479 33.9436C1.36646 34.5175 1.2092 35.1847 1.11443 35.9439C1.01965 36.699 1.02316 37.3815 1.12566 37.9899C1.22605 38.5894 1.42332 39.1204 1.71677 39.5823C2.01513 40.0525 2.35772 40.4632 2.74383 40.8145C3.13135 41.1664 3.56239 41.4596 4.03626 41.6926L4.05592 41.7037C4.60631 42.0418 5.21426 42.3128 5.87908 42.5154C6.54671 42.7194 7.27682 42.8556 8.0673 42.9234C9.65739 43.061 11.2903 42.9932 12.9653 42.7187C13.918 42.4442 14.8419 42.0764 15.7348 41.6152C16.6341 41.1505 17.5032 40.5918 18.3415 39.9377L18.3436 39.9363C19.1074 39.3548 19.7743 38.7173 20.3422 38.0252C20.9102 37.333 21.3805 36.5863 21.7526 35.7856C22.1184 34.9973 22.2995 34.1759 22.2953 33.322C22.2911 32.4639 22.0994 31.5678 21.721 30.6364L21.7168 30.626C21.4248 29.8848 21.0302 29.2058 20.5332 28.5897C20.0495 27.9895 19.4668 27.4488 18.7872 26.9676H17.909C17.8585 26.9676 17.8121 26.9531 17.7728 26.9275L16.036 25.994C15.916 25.9297 15.8717 25.7811 15.937 25.6628C15.9876 25.5716 16.0894 25.5245 16.189 25.5377ZM31.3928 32.7743C31.5831 32.7011 31.7853 32.6457 31.998 32.6091L32.0071 32.6077C32.2233 32.5711 32.4522 32.5531 32.6923 32.5531C33.3354 32.5531 33.897 32.6762 34.3758 32.9216C34.6348 33.0544 34.8405 33.2314 34.9921 33.454C35.1417 33.6725 35.2371 33.9325 35.2779 34.2333L35.28 34.2651C35.2807 36.0988 34.7324 37.7452 33.6365 39.2027C33.096 39.9218 32.5147 40.558 31.8948 41.1104C31.2735 41.6643 30.6129 42.1338 29.9151 42.5175C29.2229 42.8978 28.6255 43.1848 28.1228 43.3763C27.6012 43.5754 27.1744 43.675 26.8437 43.675C26.5804 43.675 26.3214 43.6494 26.0687 43.5975C25.8159 43.5457 25.5709 43.4689 25.3344 43.3666C25.0922 43.2615 24.8808 43.1329 24.7018 42.9808C24.5193 42.8259 24.3712 42.6482 24.2595 42.4484C24.15 42.2527 24.0686 42.0342 24.0152 41.7943L24.0131 41.7846C23.9619 41.5516 23.9366 41.2971 23.9366 41.0219C23.9366 40.7419 23.9879 40.3892 24.0897 39.9647C24.1886 39.5526 24.3375 39.0658 24.5361 38.5057C24.9412 37.3649 25.7275 36.2993 26.8957 35.3106C28.0512 34.3322 29.5465 33.4886 31.3802 32.7806L31.3928 32.7743ZM34.5007 40.9894L36.7212 38.9061C36.8202 38.8134 36.9775 38.8169 37.0715 38.9144C37.141 38.9863 37.1572 39.0886 37.1214 39.1744C36.9669 39.6086 36.7444 40.0235 36.4545 40.4169C36.6742 40.4017 36.9227 40.4183 37.1993 40.4646C37.266 40.4757 37.3222 40.5123 37.3587 40.5621C37.5265 40.7889 37.6254 41.0537 37.657 41.3559C37.6851 41.6276 37.657 41.9284 37.5728 42.2568C37.8824 42.093 38.3927 41.6947 39.1025 41.0627L39.9709 40.0387C40.1801 39.7898 40.3107 39.6307 40.3619 39.5637L40.3865 39.536C41.3743 38.4235 42.362 37.277 43.3477 36.0981C44.3565 34.8916 45.3674 33.9671 46.3804 33.3254C46.8796 32.9631 47.3934 32.7038 47.9221 32.5489C48.4507 32.3941 48.9948 32.3422 49.5522 32.3947H51.1437C51.2813 32.3947 51.3922 32.5047 51.3922 32.6395C51.3922 32.69 51.3767 32.737 51.3501 32.7757C50.926 33.5232 50.4894 34.2665 50.0401 35.0036C49.5831 35.7538 49.1162 36.4943 48.6402 37.2231L47.2446 39.3694L45.981 41.331C46.0083 41.5142 46.0217 41.7597 46.0217 42.066C46.0217 42.2174 46.0427 42.3315 46.0849 42.4083C46.1129 42.4594 46.1544 42.4933 46.2091 42.5099C46.4661 42.5673 46.7841 42.5396 47.1639 42.4269C47.571 42.3059 48.0407 42.0888 48.5707 41.7777C49.1099 41.461 49.6139 41.1077 50.0808 40.7204C50.4971 40.3754 50.8874 39.9993 51.2511 39.5934C51.3423 39.2677 51.4589 38.904 51.6014 38.503C52.0065 37.3621 52.7927 36.2966 53.9609 35.3078C55.1164 34.3294 56.6118 33.4858 58.4454 32.7778L58.4602 32.773C58.6504 32.6997 58.8526 32.6444 59.0653 32.6077L59.0745 32.6063C59.2907 32.5697 59.5195 32.5517 59.7596 32.5517C60.4027 32.5517 60.9643 32.6748 61.4431 32.9202C61.7021 33.053 61.9078 33.23 62.0595 33.4527C62.209 33.6712 62.3045 33.9311 62.3452 34.2319L62.3473 34.2637C62.348 36.0974 61.7997 37.7438 60.7039 39.2013C60.1633 39.9204 59.582 40.5566 58.9621 41.109C58.3408 41.6629 57.6802 42.1324 56.9824 42.5161C56.2902 42.8964 55.6928 43.1834 55.1901 43.3749C54.6678 43.574 54.2417 43.6736 53.9111 43.6736C53.6478 43.6736 53.3887 43.648 53.136 43.5962C52.8833 43.5443 52.6383 43.4676 52.4017 43.3652C52.1595 43.2601 51.9482 43.1315 51.7692 42.9794C51.5859 42.8245 51.4385 42.6468 51.3269 42.447C51.2174 42.2513 51.1359 42.0328 51.0826 41.7929L51.0805 41.7832C51.032 41.5633 51.0068 41.3234 51.004 41.0655C50.8537 41.237 50.6888 41.3981 50.509 41.5474C50.2198 41.788 49.9144 42.0121 49.5936 42.2195C49.2756 42.4255 48.9435 42.6136 48.5981 42.783C48.2408 42.9587 47.9487 43.1011 47.7199 43.2096C47.4791 43.3237 47.272 43.4192 47.0986 43.4952C46.921 43.5727 46.7244 43.6314 46.5103 43.6695C46.2983 43.7075 46.0708 43.7262 45.8286 43.7262C45.1975 43.7262 44.645 43.5125 44.1718 43.0852C44.1311 43.0485 44.1058 43.0008 44.096 42.951L43.8299 41.5896C43.818 41.5274 43.8307 41.4658 43.8622 41.416C44.2561 40.6769 44.7243 39.8769 45.2663 39.0181C45.8097 38.1566 46.4345 37.2238 47.1407 36.2205C47.6785 35.4558 47.9916 34.8909 48.0793 34.5272C48.1074 34.4096 48.1109 34.328 48.0884 34.2845C48.0786 34.2651 48.047 34.252 47.9951 34.2451C47.8434 34.225 47.6076 34.2686 47.2881 34.375L44.7208 36.6458C44.0806 37.3268 43.4305 38.028 42.7713 38.7491C42.1198 39.462 41.4999 40.1514 40.9116 40.8159L40.3381 41.4465L39.6894 42.1766C39.4493 42.4491 39.2155 42.6848 38.9881 42.8812C38.7578 43.081 38.5289 43.2463 38.3029 43.377C38.1105 43.5084 37.9168 43.6079 37.7223 43.6743C37.5187 43.7448 37.3144 43.7801 37.1116 43.7801C36.8357 43.7981 36.5801 43.767 36.3449 43.6881C36.1027 43.6072 35.8837 43.4752 35.6885 43.2933C35.4843 43.1025 35.3453 42.8522 35.2715 42.5431C35.2119 42.2914 35.1964 41.9996 35.2245 41.6684L35.1346 41.7383C34.6446 42.1137 34.1181 42.4491 33.5565 42.7436L33.5375 42.7526C32.9794 43.0444 32.3883 43.2954 31.7656 43.5056C31.6357 43.5491 31.4939 43.4814 31.4497 43.3535C31.4181 43.2622 31.4441 43.1647 31.5094 43.1011C31.6049 43.0071 31.7705 42.8764 32.0057 42.709C32.2311 42.5493 32.5224 42.355 32.8797 42.1262C33.2286 41.9028 33.541 41.6947 33.8148 41.5032C34.0767 41.3165 34.307 41.145 34.5007 40.9894ZM30.2738 34.3661C29.6722 34.8411 29.1281 35.3251 28.6423 35.816C28.1551 36.309 27.7283 36.8082 27.3639 37.313C27.0073 37.8067 26.7398 38.3315 26.5615 38.8881C26.3832 39.444 26.294 40.0331 26.294 40.6541C26.294 40.8193 26.3067 41.0046 26.3319 41.2072L26.3326 41.2141C26.3586 41.4223 26.3972 41.647 26.4478 41.8883C26.4843 42.0612 26.6022 42.1939 26.8016 42.2859C27.0417 42.3965 27.3927 42.4518 27.8532 42.4518C27.9459 42.4518 28.1024 42.4062 28.3222 42.3149C28.5651 42.2147 28.874 42.0612 29.2481 41.8551C29.6076 41.6574 29.9923 41.3524 30.4016 40.941C30.8158 40.5248 31.2552 39.9972 31.7193 39.359C32.1756 38.7312 32.5175 38.1012 32.7442 37.4693C32.9696 36.8414 33.0819 36.2095 33.0819 35.5733C33.0819 35.3244 33.044 35.1059 32.9675 34.9178C32.8938 34.7353 32.7814 34.5776 32.6326 34.4456C32.4789 34.3094 32.3069 34.207 32.1173 34.14C31.925 34.0715 31.7088 34.0376 31.4701 34.0376C31.2609 34.0376 31.0573 34.0653 30.8593 34.1199C30.6606 34.1745 30.4662 34.2568 30.2738 34.3661ZM61.5667 40.9894L63.7872 38.9061C63.8861 38.8134 64.0434 38.8169 64.1375 38.9144L64.1684 38.9531C64.452 38.4898 64.7546 38.0017 65.0768 37.4879C65.7985 36.3367 66.4008 35.368 66.8831 34.5832C67.3478 33.8267 67.6652 33.2964 67.8365 32.9935C67.8842 32.9092 67.9748 32.8635 68.0667 32.8684L69.6568 32.9202C69.7909 32.9244 69.8969 33.0329 69.8969 33.1643C69.8976 33.4077 69.8822 33.5992 69.852 33.7389C69.84 33.7935 69.8246 33.8433 69.8063 33.8869C69.8351 33.8862 69.8737 33.8751 69.9229 33.8544L69.979 33.8288C70.5371 33.5986 70.9991 33.4098 71.3634 33.2646C71.732 33.1173 72.0191 33.0074 72.2227 32.9341C72.4319 32.8594 72.646 32.8027 72.8637 32.7654C73.0827 32.728 73.3052 32.7094 73.5306 32.7094C74.3077 32.7094 74.9508 33.0115 75.4584 33.6145C75.5735 33.6974 75.6837 33.7597 75.7904 33.8011C75.8922 33.8413 75.9905 33.8613 76.0839 33.8613C76.1962 33.8613 76.3563 33.8226 76.5612 33.7465C76.7845 33.6635 77.0562 33.537 77.3749 33.3669C77.7105 33.1878 77.9976 33.053 78.2328 32.9617C78.4883 32.8629 78.6933 32.8138 78.8484 32.8138C79.7948 32.8138 80.5825 32.914 81.2108 33.1145C81.5632 33.2266 81.8314 33.4077 82.0139 33.6559C82.1957 33.9042 82.2877 34.2119 82.2877 34.5776C82.2877 34.6212 82.2764 34.662 82.2561 34.6973C81.7043 35.8872 81.0872 37.0502 80.4048 38.1842C79.733 39.3016 78.9952 40.3955 78.1927 41.4651V42.1711C78.1927 42.281 78.211 42.364 78.2468 42.42L78.2538 42.4311C78.277 42.4622 78.3107 42.4857 78.3549 42.5023C79.2058 42.4988 79.8025 42.382 80.1444 42.1524C80.3255 42.0307 80.699 41.685 81.2627 41.1166C81.7598 40.616 82.3916 39.955 83.1575 39.1363C83.3337 38.7968 83.5611 38.4566 83.8391 38.1165C84.5672 37.2245 85.1983 36.4715 85.7318 35.8582C86.0077 35.5415 86.3798 35.1965 86.8487 34.8252C87.3086 34.4601 87.8674 34.0646 88.5231 33.64C89.1879 33.2093 89.8288 32.8864 90.4445 32.6706C91.07 32.4514 91.671 32.3422 92.2487 32.3422C93.0848 32.3422 93.7391 32.5261 94.2102 32.8933C94.4138 33.0523 94.5802 33.1719 94.7072 33.2514L94.8322 33.3268C95.0217 33.2508 95.1951 33.1885 95.351 33.1394C95.5307 33.0834 95.6908 33.0454 95.8291 33.026C95.9645 33.0067 96.0902 33.1 96.1099 33.2335L96.112 33.268L96.1127 34.001C96.1127 34.0556 96.0944 34.1061 96.0635 34.1469L91.3663 41.7887C91.3473 41.8959 91.3494 42.001 91.3733 42.1026C91.4007 42.2181 91.4575 42.3322 91.5425 42.4435C91.6218 42.5479 91.7039 42.6185 91.7868 42.653C91.8591 42.6835 91.9405 42.6883 92.0283 42.6669L92.0402 42.6641C92.6475 42.5445 93.207 42.3827 93.7181 42.1801C94.2263 41.9782 94.6911 41.7334 95.1109 41.4465L95.1249 41.4375C95.5511 41.1464 95.9526 40.8553 96.3289 40.5656C96.7108 40.2717 97.0681 39.9778 97.4009 39.6847C97.5027 39.5948 97.6592 39.6038 97.7505 39.704C97.8305 39.7918 97.8333 39.9211 97.7645 40.0124C97.45 40.4321 97.0337 40.8428 96.5156 41.2446C96.0053 41.6401 95.3931 42.03 94.6798 42.4124C93.2421 43.1834 92.0234 43.5692 91.0251 43.5692C90.4206 43.5692 90.0043 43.4461 89.7783 43.2007C89.6758 43.0893 89.5895 42.9656 89.5214 42.8314C89.454 42.6987 89.4041 42.5555 89.3732 42.4034C89.3508 42.2935 89.3234 42.205 89.2918 42.1393C89.2764 42.1082 89.263 42.086 89.2504 42.0722C89.1879 42.0522 89.1226 42.0508 89.0552 42.0688L89.0468 42.0708C88.9541 42.0971 88.8523 42.1573 88.7428 42.252C88.5933 42.3813 88.4676 42.4822 88.3665 42.5542C88.2493 42.6378 88.151 42.6931 88.0731 42.7187C87.9474 42.7602 87.8119 42.6973 87.7635 42.5777C87.7684 42.6641 87.727 42.7491 87.6505 42.7975C87.2938 43.0541 86.8951 43.2477 86.4563 43.3763C86.0154 43.5056 85.5352 43.5699 85.0165 43.5699C84.6942 43.5699 84.4106 43.536 84.1656 43.4689C83.908 43.3984 83.6938 43.2892 83.5232 43.1426C83.505 43.1274 83.4902 43.1094 83.4776 43.0907C83.22 42.727 83.0255 42.3654 82.8949 42.0065C82.7608 41.638 82.6934 41.2736 82.6934 40.9161V40.9099C82.5439 41.0966 82.3944 41.2681 82.2456 41.4243C81.9598 41.7237 81.632 42.001 81.2627 42.2555C80.897 42.5071 80.4898 42.7374 80.0426 42.9441C79.594 43.1516 79.17 43.3078 78.7712 43.4116C78.364 43.5173 77.9814 43.5706 77.6241 43.5706C77.4177 43.5706 77.2078 43.5512 76.9951 43.5132C76.7859 43.4759 76.5767 43.4192 76.3696 43.3452C76.3324 43.332 76.3008 43.3106 76.2748 43.2843C76.1281 43.1391 76.0179 42.9718 75.9435 42.7844C75.8697 42.5977 75.8325 42.3937 75.8325 42.1725C75.8325 42.0176 75.848 41.8662 75.8768 41.7196L75.8824 41.6981C75.9126 41.5557 75.9561 41.4195 76.0123 41.2902L76.0186 41.2771C76.0768 41.1457 76.1843 40.9348 76.3401 40.6444C76.4953 40.3561 76.7094 39.9702 76.9811 39.4876C77.4999 38.642 78.164 37.7182 78.7179 36.8808C79.0043 36.4445 79.2591 36.0048 79.481 35.5636C79.6881 35.1515 79.8664 34.7394 80.0152 34.328C79.9141 34.1206 79.7772 33.9629 79.6045 33.8565C79.4066 33.7341 79.1531 33.6718 78.8456 33.6718C78.5999 33.6718 78.3605 33.7037 78.1275 33.7666C77.8916 33.8309 77.6578 33.9277 77.4268 34.0584L75.6725 34.9731L70.5505 43.3991C70.5042 43.4752 70.422 43.518 70.3378 43.518C70.1939 43.5187 69.8688 43.5008 69.3634 43.4655L68.7561 43.4261C68.6087 43.4178 68.4978 43.4136 68.424 43.4136C68.2865 43.4136 68.1755 43.3037 68.1755 43.1689C68.1755 43.1094 68.1973 43.0555 68.2324 43.0126C69.1942 41.6159 70.1082 40.1735 70.9731 38.6869C71.8254 37.2231 72.6229 35.7268 73.3663 34.1994C73.3123 34.0701 73.235 33.9712 73.1354 33.9042C73.0097 33.8198 72.8391 33.7769 72.6236 33.7769C72.493 33.7769 72.3554 33.7887 72.2122 33.8122C72.0641 33.8364 71.9054 33.8737 71.7369 33.9235C71.5691 33.9726 71.4056 34.0245 71.249 34.0777C71.0903 34.131 70.9492 34.1821 70.8278 34.2305C70.7063 34.2782 70.594 34.3308 70.4915 34.3875C70.3925 34.4421 70.3055 34.4981 70.2325 34.5555C69.6407 35.0527 69.0727 35.63 68.5287 36.2855C67.9825 36.9445 67.4588 37.6836 66.9603 38.5023C65.9557 40.1514 65.008 41.7306 64.1178 43.2394C64.0687 43.323 63.976 43.3673 63.8833 43.3604L62.0883 43.3085C61.9514 43.3051 61.844 43.1924 61.8475 43.0575C61.8482 43.0167 61.8594 42.9794 61.8784 42.9462C62.1318 42.4477 62.4519 41.862 62.8373 41.1899C62.6408 41.3787 62.4266 41.5612 62.195 41.7389C61.705 42.1144 61.1784 42.4497 60.6168 42.7443L60.5979 42.7533C60.0397 43.0451 59.4486 43.2961 58.8259 43.5063C58.6961 43.5498 58.5543 43.4821 58.51 43.3542C58.4784 43.2629 58.5044 43.1654 58.5697 43.1018C58.6652 43.0077 58.8309 42.8771 59.066 42.7097C59.2914 42.55 59.5827 42.3557 59.9401 42.1268C60.289 41.9035 60.6014 41.6954 60.8752 41.5039C61.1426 41.3165 61.3729 41.145 61.5667 40.9894ZM57.3397 34.3661C56.7381 34.8411 56.194 35.3251 55.7082 35.816C55.221 36.309 54.7942 36.8082 54.4299 37.313C54.0732 37.8067 53.805 38.3315 53.6267 38.8881C53.4484 39.444 53.3593 40.0331 53.3593 40.6541C53.3593 40.8193 53.3719 41.0046 53.3972 41.2072L53.3979 41.2141C53.4238 41.4223 53.4625 41.647 53.513 41.8883C53.5495 42.0612 53.6674 42.1939 53.8668 42.2859C54.1069 42.3965 54.4579 42.4518 54.9185 42.4518C55.0111 42.4518 55.1677 42.4062 55.3874 42.3149C55.6303 42.2147 55.9392 42.0612 56.3134 41.8551C56.6728 41.6574 57.0575 41.3524 57.4668 40.941C57.881 40.5248 58.3205 39.9972 58.7845 39.359C59.2408 38.7312 59.5827 38.1012 59.8095 37.4693C60.0348 36.8414 60.1472 36.2095 60.1472 35.5733C60.1472 35.3244 60.1092 35.1059 60.0327 34.9178C59.959 34.7353 59.8467 34.5776 59.6979 34.4456C59.5441 34.3094 59.3721 34.207 59.1826 34.14C58.9902 34.0715 58.774 34.0376 58.5353 34.0376C58.3261 34.0376 58.1225 34.0653 57.9245 34.1199C57.7273 34.1745 57.5321 34.2568 57.3397 34.3661ZM87.2763 36.8359C87.0193 37.174 86.7912 37.49 86.5918 37.7839C86.3931 38.0784 86.2232 38.3502 86.0842 38.5984C85.9466 38.8446 85.8034 39.1336 85.6553 39.4634C85.5107 39.7863 85.3647 40.1403 85.2172 40.5248C85.2832 40.9929 85.3422 41.3739 85.3934 41.6663C85.444 41.954 85.4847 42.1386 85.5149 42.2209C85.531 42.2651 85.5746 42.3101 85.6434 42.355C85.7381 42.4159 85.8701 42.4691 86.0379 42.5141C86.0744 42.5237 86.1067 42.541 86.1334 42.5638C86.2485 42.6503 86.4261 42.6676 86.6634 42.6157C86.8129 42.5832 86.9505 42.5459 87.0762 42.5044L87.0881 42.5009C87.2019 42.4629 87.3072 42.42 87.404 42.373C87.5269 42.3128 87.6764 42.3619 87.7375 42.4829L87.7459 42.5016C87.741 42.4179 87.7803 42.337 87.8498 42.2886C88.4578 41.8606 89.011 41.3842 89.508 40.8615C90.0051 40.3374 90.4494 39.7628 90.8405 39.1391C91.6127 37.9056 92.4621 36.347 93.3874 34.4649L93.0645 34.1185C92.9437 33.992 92.8251 33.871 92.71 33.7576C92.6187 33.6677 92.5211 33.593 92.4165 33.5349L92.4053 33.528C92.3049 33.4734 92.1968 33.4312 92.0809 33.4029C91.9433 33.369 91.8254 33.3441 91.7285 33.3282C91.638 33.3137 91.5628 33.3061 91.5032 33.3061C91.1332 33.3061 90.7773 33.389 90.4361 33.555C90.0872 33.7251 89.7495 33.9823 89.4245 34.3273C89.0819 34.691 88.7316 35.0817 88.3756 35.4973C88.0232 35.9094 87.6596 36.3519 87.2854 36.8255L87.2763 36.8359ZM150.192 10.5596C150.936 10.6661 151.657 10.8576 152.354 11.1307C153.05 11.4038 153.721 11.7599 154.365 12.1976C155.666 13.0827 156.575 14.2132 157.089 15.5878L157.098 15.6168C157.17 15.9217 157.226 16.2419 157.262 16.5765C157.299 16.9112 157.317 17.2562 157.317 17.6102C157.317 18.6861 157.153 19.6638 156.823 20.542C156.493 21.4243 155.996 22.2063 155.333 22.886C154.681 23.5546 153.986 24.1278 153.25 24.6042C152.512 25.0813 151.729 25.463 150.902 25.75C149.316 26.2997 147.704 26.5831 146.068 26.6011C145.625 27.6334 145.043 28.6838 144.321 29.752C143.565 30.8715 142.655 32.0124 141.593 33.1719C140.546 34.3163 139.506 35.4475 138.475 36.5642C137.457 37.6663 136.448 38.754 135.449 39.825C135.432 39.843 135.414 39.8582 135.393 39.87L135.391 39.8713C134.429 40.4335 133.418 40.9396 132.36 41.3898C131.304 41.8392 130.204 42.2313 129.062 42.5652C128.44 42.7471 127.818 42.904 127.196 43.0368C126.908 43.1018 126.619 43.1585 126.325 43.2062C124.945 43.4489 123.565 43.5706 122.187 43.5706C120.769 43.5706 119.412 43.424 118.116 43.1322C116.82 42.8397 115.588 42.4007 114.417 41.8157L114.385 41.797C114.122 41.6124 113.879 41.4001 113.655 41.1609C113.432 40.923 113.227 40.6575 113.042 40.365C112.854 40.0677 112.711 39.7593 112.616 39.4406C112.52 39.1204 112.472 38.7913 112.472 38.4553C112.472 38.0722 112.509 37.7092 112.584 37.369C112.659 37.0281 112.772 36.708 112.925 36.4079C113.242 35.7835 113.774 35.3742 114.519 35.1813L114.564 35.1737C114.786 35.1571 114.987 35.1432 115.168 35.1343C115.35 35.1246 115.491 35.1204 115.593 35.1204C115.889 35.1204 116.141 35.1854 116.35 35.3161C116.563 35.4482 116.724 35.6438 116.832 35.9004C116.859 35.964 116.857 36.0317 116.831 36.0905C116.775 36.2364 116.646 36.3878 116.445 36.5455C116.262 36.6886 116.008 36.847 115.684 37.0205C115.402 37.1726 115.185 37.3386 115.033 37.5184L115.021 37.5322C114.885 37.6974 114.803 37.8779 114.775 38.0715L114.769 38.1012C114.692 38.4421 114.694 38.765 114.776 39.0679C114.859 39.3749 115.025 39.6674 115.274 39.944C115.538 40.2378 115.846 40.5282 116.197 40.8145C116.544 41.0973 116.928 41.3725 117.35 41.6387C117.914 41.824 118.475 41.9941 119.03 42.149C119.59 42.3052 120.138 42.4442 120.674 42.5652C121.204 42.6848 121.725 42.7754 122.236 42.8356C122.743 42.895 123.241 42.9255 123.729 42.9255C124.62 42.9255 125.487 42.8536 126.329 42.7104C126.551 42.6703 126.774 42.6275 126.998 42.5804C128.803 42.1856 130.494 41.4506 132.069 40.3768C133.324 39.5215 134.489 38.568 135.564 37.5177C136.641 36.466 137.628 35.3175 138.522 34.0743C139.419 32.8269 140.275 31.5104 141.089 30.1254C141.868 28.7992 142.607 27.4115 143.306 25.9643C142.823 25.611 142.399 25.2957 142.036 25.0205C141.624 24.7079 141.292 24.4486 141.04 24.2433C140.771 24.0241 140.539 23.7959 140.347 23.5595C140.152 23.3209 139.997 23.0734 139.882 22.8182L139.876 22.8044C139.765 22.5569 139.682 22.3169 139.627 22.0867C139.57 21.8454 139.541 21.6103 139.541 21.3828C139.541 20.0939 140.137 19.1646 141.33 18.5963C141.365 18.5797 141.402 18.5721 141.438 18.5721L142.502 18.5714C143.355 18.5714 143.827 18.9046 143.917 19.5705C143.933 19.6874 143.862 19.7952 143.753 19.8326C143.403 19.9529 143.069 20.0766 142.753 20.2018C142.436 20.3276 142.138 20.4549 141.862 20.5821C141.631 20.6886 141.465 20.8379 141.367 21.0281C141.264 21.2258 141.228 21.4754 141.259 21.7769L141.261 21.8011C141.261 22.16 141.311 22.4939 141.41 22.8009C141.508 23.1072 141.655 23.3894 141.849 23.6445C142.05 23.9079 142.291 24.1617 142.573 24.4058L142.585 24.4175C142.849 24.6436 143.146 24.8594 143.475 25.0647H143.965C144.983 23.5726 145.91 22.2782 146.743 21.183C147.598 20.06 148.357 19.1453 149.02 18.44C149.685 17.7313 150.353 17.0993 151.022 16.5454C151.697 15.9874 152.377 15.5041 153.061 15.0962C153.178 15.0263 153.331 15.0637 153.402 15.1791C153.437 15.2358 153.445 15.3001 153.432 15.3596C153.403 15.5083 153.314 15.6618 153.165 15.8187C153.034 15.957 152.849 16.1064 152.61 16.2661C152.405 16.403 152.243 16.5316 152.122 16.6498C152.021 16.7501 151.958 16.8338 151.936 16.9015C151.929 16.9236 151.918 16.9437 151.906 16.9617L150.398 19.1473L148.849 21.4118C148.332 22.1703 147.888 22.9129 147.515 23.6383C147.19 24.2703 146.92 24.8905 146.706 25.4969C146.819 25.5197 146.931 25.5377 147.039 25.5515L147.047 25.5522C147.232 25.5757 147.419 25.5875 147.606 25.5875C147.963 25.5875 148.318 25.5543 148.669 25.4872C149.022 25.4201 149.373 25.3192 149.722 25.185C150.075 25.0495 150.44 24.8794 150.817 24.6748C151.186 24.4742 151.566 24.2398 151.959 23.9722C152.462 23.39 152.909 22.8514 153.299 22.357C153.695 21.8543 154.033 21.3959 154.314 20.9824C154.582 20.5849 154.785 20.1658 154.919 19.7261C155.054 19.2863 155.122 18.8251 155.122 18.3425C155.122 18.0763 155.096 17.8018 155.046 17.5204C154.995 17.2376 154.92 16.9478 154.821 16.6533C154.356 15.6057 153.754 14.7414 153.014 14.0638C152.276 13.3869 151.396 12.8918 150.377 12.58C149.338 12.2619 148.171 12.0227 146.878 11.863C145.582 11.7032 144.158 11.623 142.608 11.623H140.347C138.37 12.0732 136.512 12.6636 134.775 13.3966C133.032 14.1323 131.408 15.0104 129.907 16.0303C128.419 17.0419 127.234 18.2277 126.352 19.5871C125.471 20.9465 124.892 22.4829 124.614 24.1949L124.606 24.2281C124.539 24.4417 124.489 24.6651 124.455 24.8981C124.421 25.1283 124.404 25.3703 124.404 25.6227C124.404 26.3812 124.64 27.1937 125.111 28.0601C125.359 28.383 125.622 28.6464 125.9 28.8518C126.176 29.0564 126.47 29.203 126.777 29.2902C127.103 29.3828 127.511 29.4706 127.999 29.5522C128.486 29.6331 129.051 29.7085 129.693 29.7769C130.33 29.7762 130.942 29.7147 131.529 29.593C132.118 29.4699 132.683 29.286 133.225 29.0405C133.773 28.7923 134.337 28.4888 134.919 28.132C135.503 27.7731 136.102 27.3603 136.712 26.8957C136.82 26.8134 136.976 26.8328 137.061 26.9399C137.102 26.9932 137.118 27.0568 137.11 27.119C137.069 27.453 136.884 27.7842 136.556 28.1119C136.252 28.4162 135.819 28.7232 135.257 29.0309C134.699 29.3372 134.23 29.5909 133.853 29.7915C133.468 29.9954 133.145 30.1628 132.881 30.2921L132.856 30.3031C132.029 30.6053 131.205 30.8314 130.384 30.9821C129.56 31.1335 128.743 31.2096 127.932 31.2096C126.985 31.2096 126.143 31.0921 125.409 30.857C125.038 30.738 124.68 30.5749 124.333 30.3681C123.989 30.1621 123.661 29.9138 123.348 29.6241L123.313 29.5854C122.875 29.0426 122.545 28.4694 122.326 27.8658C122.104 27.2545 121.993 26.6115 121.993 25.9373C121.993 25.0751 122.148 24.1852 122.458 23.2684C122.611 22.8175 122.793 22.3467 123.004 21.8557C123.214 21.3662 123.454 20.8566 123.722 20.329L123.748 20.2882C125.054 18.6308 126.52 17.1802 128.145 15.937C129.768 14.6951 131.552 13.6586 133.497 12.8289C135.439 12.0006 137.474 11.3796 139.603 10.9668C141.732 10.5534 143.957 10.3466 146.277 10.3466H147.872C148.086 10.3466 148.391 10.3646 148.786 10.4012C149.169 10.4365 149.638 10.489 150.19 10.5596H150.192ZM151.644 32.7626L152.389 32.7619C152.558 32.7619 152.706 32.7847 152.832 32.8297C152.975 32.8815 153.089 32.9617 153.172 33.0703C153.231 33.1484 153.236 33.2494 153.193 33.3303C153.033 33.629 152.74 34.1185 152.313 34.7989C151.883 35.4855 151.331 36.3464 150.657 37.3815C149.98 38.4207 149.451 39.3369 149.071 40.1293C148.695 40.912 148.464 41.5709 148.38 42.1047L148.378 42.1179C148.365 42.1815 148.358 42.2396 148.358 42.2914C148.358 42.3654 148.373 42.4207 148.402 42.456L148.409 42.4643C148.442 42.4968 148.495 42.5217 148.569 42.5369C148.626 42.5486 148.694 42.5549 148.774 42.5549C148.98 42.5549 149.248 42.5044 149.578 42.4027C149.922 42.2969 150.329 42.1365 150.797 41.9229L151.975 41.3815C152.245 41.2563 152.455 41.1567 152.604 41.0841C153.12 40.4549 153.635 39.7732 154.146 39.0402C154.67 38.29 155.192 37.4845 155.713 36.625L157.035 34.4331C157.398 33.8274 157.676 33.3628 157.864 33.0406C157.914 32.9562 158.007 32.9119 158.099 32.9196L159.787 32.9714C159.924 32.9749 160.032 33.0876 160.028 33.2224C160.027 33.2597 160.017 33.2957 160.001 33.3268C159.732 33.891 159.411 34.4967 159.038 35.1432C158.663 35.796 158.234 36.4895 157.756 37.2238L156.362 39.3666L155.096 41.3324C155.107 41.4098 155.116 41.4962 155.123 41.5924C155.133 41.7327 155.137 41.8911 155.137 42.0667C155.137 42.2181 155.158 42.3322 155.2 42.409C155.228 42.4601 155.27 42.494 155.324 42.5106C155.581 42.568 155.9 42.5403 156.279 42.4276L156.29 42.4249C156.693 42.3039 157.159 42.0874 157.685 41.7784C158.225 41.4617 158.729 41.1083 159.195 40.7211C159.613 40.3747 160.003 39.9993 160.365 39.5948C160.456 39.2691 160.573 38.9047 160.715 38.503C161.12 37.3621 161.907 36.2966 163.075 35.3078C164.23 34.3294 165.726 33.4858 167.559 32.7778L167.574 32.773C167.764 32.6997 167.967 32.6444 168.179 32.6077L168.188 32.6063C168.405 32.5697 168.633 32.5517 168.874 32.5517C169.192 32.5517 169.491 32.5849 169.769 32.6513C170.045 32.717 170.299 32.8151 170.528 32.9451L170.633 32.9942C170.622 32.7854 170.605 32.5946 170.582 32.4238C170.54 32.123 170.479 31.8769 170.399 31.686L170.396 31.6791C170.181 31.1833 169.984 30.6924 169.809 30.2084L169.808 30.2063C169.599 29.7237 169.418 29.2895 169.267 28.905C169.113 28.513 168.991 28.1755 168.902 27.8941C168.81 27.6044 168.742 27.3278 168.695 27.0637C168.648 26.7961 168.625 26.5417 168.625 26.3024C168.625 26.0563 168.673 25.7617 168.768 25.4201C168.859 25.0889 168.996 24.7135 169.177 24.2951C169.364 23.8609 169.661 23.4225 170.066 22.9835C170.464 22.5513 170.966 22.1164 171.571 21.6801C172.181 21.241 172.754 20.9105 173.291 20.6893C173.84 20.4625 174.353 20.3491 174.828 20.3491C175.437 20.3491 176.066 20.385 176.717 20.4555C177.032 20.4901 177.339 20.5164 177.633 20.533C177.924 20.5496 178.211 20.5586 178.497 20.5586H178.55C179.435 20.5586 180.171 20.3228 180.757 19.8526C180.814 19.7786 180.883 19.7212 180.965 19.6811L180.989 19.6708C181.072 19.6341 181.163 19.6161 181.262 19.6161C181.406 19.6161 181.531 19.6424 181.638 19.695C181.735 19.7413 181.81 19.7918 181.864 19.845C181.947 19.9273 181.99 20.0206 181.99 20.123C181.99 20.2253 181.943 20.3228 181.851 20.4141L181.833 20.43C181.778 20.4798 181.705 20.533 181.614 20.5876L181.106 20.988C180.83 21.2265 180.432 21.5833 179.916 22.0569C179.622 22.3259 179.193 22.5043 178.628 22.5907C178.092 22.6723 177.428 22.673 176.637 22.5928C175.887 22.5161 175.239 22.4559 174.695 22.4103C174.162 22.366 173.76 22.3397 173.49 22.3314C173.226 22.3231 172.964 22.3418 172.703 22.3875C172.45 22.4317 172.2 22.5015 171.956 22.5963C171.614 22.7567 171.312 22.9821 171.051 23.2711C170.785 23.5664 170.559 23.928 170.376 24.3553C170.189 24.7909 170.066 25.1892 170.007 25.5494C169.95 25.8972 169.953 26.2098 170.016 26.4843C170.089 26.794 170.161 27.0789 170.233 27.3389C170.306 27.6003 170.383 27.8492 170.462 28.085L170.466 28.0974C170.541 28.3194 170.627 28.5517 170.724 28.7937C170.821 29.0378 170.926 29.2832 171.039 29.5294C171.155 29.7866 171.268 30.0473 171.375 30.3107C171.484 30.5797 171.588 30.8494 171.684 31.1183C171.889 31.686 171.991 32.3339 171.991 33.0592C171.991 33.3261 171.972 33.6034 171.935 33.889C171.898 34.1725 171.843 34.458 171.771 34.7422L171.764 34.7657C171.708 34.9635 171.64 35.1564 171.559 35.3417C171.481 35.5208 171.39 35.6964 171.288 35.8679C171.178 36.4632 171.002 37.0392 170.761 37.5937C170.513 38.1614 170.199 38.7063 169.816 39.2262L169.802 39.2435C169.262 39.9502 168.685 40.5752 168.073 41.1173C167.453 41.6656 166.793 42.1324 166.093 42.5175C165.401 42.8978 164.803 43.1848 164.301 43.3763C163.779 43.5754 163.352 43.675 163.021 43.675C162.758 43.675 162.499 43.6494 162.246 43.5975C161.994 43.5457 161.749 43.4689 161.512 43.3666C161.27 43.2615 161.059 43.1329 160.88 42.9808C160.697 42.8259 160.549 42.6482 160.437 42.4484C160.328 42.2527 160.246 42.0342 160.193 41.7943L160.191 41.7846C160.142 41.564 160.117 41.3248 160.114 41.0669C159.964 41.239 159.799 41.3994 159.619 41.5488C159.33 41.7887 159.025 42.0134 158.704 42.2209C158.386 42.4269 158.054 42.615 157.708 42.7851C157.353 42.96 157.061 43.1025 156.831 43.2117C156.582 43.33 156.375 43.4254 156.21 43.4973L156.196 43.5028C155.847 43.6529 155.428 43.7289 154.94 43.7289C154.309 43.7289 153.757 43.5146 153.284 43.088C153.262 43.0686 153.245 43.0465 153.232 43.0223L152.657 42.0197C152.193 42.2313 151.757 42.4255 151.351 42.6012C150.884 42.8038 150.436 42.9905 150.007 43.1606C149.582 43.33 149.186 43.4586 148.822 43.5443C148.451 43.6321 148.115 43.6764 147.814 43.6764C147.598 43.6764 147.388 43.6494 147.185 43.5955C146.983 43.5422 146.788 43.4613 146.6 43.3549C146.387 43.2332 146.226 43.0589 146.12 42.8335C146.02 42.6219 145.971 42.3668 145.971 42.0701C145.971 41.8966 145.99 41.7147 146.028 41.5246C146.065 41.3407 146.122 41.145 146.199 40.9396C146.274 40.7363 146.446 40.3962 146.714 39.9218C146.975 39.4613 147.333 38.8605 147.789 38.1206C148.247 37.378 148.779 36.5711 149.385 35.6999C149.992 34.8273 150.678 33.882 151.444 32.8642C151.494 32.7979 151.569 32.7633 151.644 32.7626ZM166.455 34.3661C165.853 34.8411 165.309 35.3251 164.824 35.816C164.336 36.309 163.91 36.8082 163.545 37.313C163.189 37.8067 162.921 38.3315 162.743 38.8881C162.564 39.444 162.475 40.0331 162.475 40.6541C162.475 40.8193 162.488 41.0046 162.513 41.2072L162.514 41.2141C162.54 41.4223 162.578 41.647 162.629 41.8883C162.666 42.0612 162.783 42.1939 162.983 42.2859C163.223 42.3965 163.574 42.4518 164.034 42.4518C164.127 42.4518 164.284 42.4062 164.503 42.3149C164.746 42.2147 165.055 42.0612 165.429 41.8551C165.789 41.6574 166.174 41.3524 166.583 40.941C166.997 40.5248 167.436 39.9972 167.901 39.359C168.357 38.7312 168.699 38.1012 168.925 37.4693C169.151 36.8414 169.263 36.2095 169.263 35.5733C169.263 35.3244 169.225 35.1052 169.149 34.9178C169.075 34.7353 168.963 34.5776 168.814 34.4456C168.66 34.3094 168.488 34.207 168.299 34.14C168.106 34.0715 167.89 34.0376 167.651 34.0376C167.442 34.0376 167.239 34.0653 167.041 34.1199C166.843 34.1745 166.647 34.2568 166.455 34.3661ZM170.682 40.9894L172.902 38.9061C173.001 38.8134 173.159 38.8169 173.253 38.9144C173.322 38.9856 173.338 39.0886 173.303 39.1744C173.134 39.6494 172.884 40.1009 172.552 40.5268C172.219 40.9548 171.805 41.3586 171.311 41.7369C170.821 42.1123 170.294 42.4477 169.733 42.7422L169.714 42.7512C169.156 43.043 168.565 43.294 167.942 43.5042C167.812 43.5478 167.67 43.48 167.626 43.3521C167.594 43.2608 167.62 43.1633 167.686 43.0997C167.781 43.0057 167.947 42.875 168.182 42.7077C168.407 42.5479 168.699 42.3536 169.056 42.1248C169.406 41.9014 169.717 41.6933 169.991 41.5018C170.258 41.3165 170.489 41.145 170.682 40.9894ZM180.197 32.3512C179.719 33.1823 179.266 33.9643 178.835 34.6966C178.444 35.3604 178.041 36.0373 177.625 36.728C177.723 36.7695 177.819 36.8041 177.915 36.8311C178.078 36.8767 178.237 36.9002 178.392 36.9002C178.589 36.9002 178.797 36.876 179.016 36.8283C179.242 36.7792 179.481 36.7045 179.735 36.6043C180.251 36.401 180.751 36.197 181.233 35.9944C181.402 35.8444 181.565 35.6943 181.722 35.5429C181.893 35.3783 182.062 35.2103 182.227 35.0388C182.376 34.8839 182.488 34.7304 182.561 34.579C182.629 34.438 182.663 34.2983 182.663 34.1593C182.663 34.0846 182.636 33.9664 182.583 33.8046C182.441 33.6248 182.341 33.463 182.282 33.3206C182.207 33.1353 182.197 32.9693 182.251 32.8248C182.322 32.6132 182.444 32.4521 182.618 32.3429C182.783 32.2385 182.987 32.1859 183.23 32.1859H184.081C184.12 32.1859 184.157 32.1949 184.191 32.2115C184.461 32.318 184.666 32.4784 184.807 32.6907C184.95 32.9064 185.021 33.1692 185.021 33.4782C185.021 33.8288 184.861 34.3273 184.543 34.9725C184.374 35.3161 184.083 35.6293 183.67 35.9114C183.276 36.1818 182.766 36.4252 182.143 36.6423L179.067 37.714C179.238 37.9125 179.391 38.1635 179.528 38.4656C179.735 38.9241 179.908 39.5076 180.044 40.2157C180.17 40.867 180.37 41.3725 180.643 41.73L180.652 41.7431C180.89 42.0501 181.188 42.2472 181.545 42.3329C181.814 42.1898 182.073 42.0376 182.322 41.8765C182.605 41.6926 182.875 41.5004 183.129 41.3006C183.384 41.0994 183.637 40.8843 183.885 40.6575C184.035 40.5206 184.182 40.3796 184.325 40.2357C184.374 39.993 184.448 39.7503 184.548 39.507C184.738 39.0444 185.023 38.5811 185.402 38.1165C186.13 37.2245 186.761 36.4715 187.295 35.8582C187.571 35.5415 187.943 35.1965 188.412 34.8252C188.871 34.4601 189.43 34.0646 190.086 33.64C190.751 33.2093 191.392 32.8864 192.007 32.6706C192.633 32.4514 193.235 32.3422 193.812 32.3422C194.648 32.3422 195.302 32.5261 195.773 32.8933C195.977 33.0523 196.143 33.1719 196.27 33.2514L196.395 33.3268C196.587 33.2501 196.76 33.1871 196.914 33.1394C197.094 33.0834 197.254 33.0454 197.392 33.026C197.527 33.0067 197.653 33.1 197.673 33.2335L197.675 33.268L197.676 34.001C197.676 34.0556 197.657 34.1061 197.626 34.1469L192.929 41.7887C192.91 41.8959 192.912 42.001 192.936 42.1026C192.964 42.2181 193.02 42.3322 193.105 42.4435C193.185 42.5479 193.267 42.6185 193.35 42.653C193.422 42.6835 193.503 42.6883 193.591 42.6669L193.603 42.6641C194.21 42.5445 194.77 42.3827 195.281 42.1801C195.789 41.9782 196.254 41.7334 196.674 41.4465L196.688 41.4375C197.114 41.1464 197.516 40.8553 197.892 40.5656C198.274 40.2717 198.631 39.9778 198.964 39.6847C199.066 39.5948 199.222 39.6038 199.313 39.704C199.393 39.7918 199.396 39.9211 199.327 40.0124C199.013 40.4321 198.597 40.8428 198.079 41.2446C197.568 41.6401 196.956 42.03 196.243 42.4124C194.805 43.1834 193.586 43.5692 192.588 43.5692C191.984 43.5692 191.567 43.4461 191.341 43.2007C191.239 43.0893 191.152 42.9656 191.084 42.8314C191.017 42.6987 190.967 42.5555 190.936 42.4034C190.914 42.2935 190.886 42.205 190.855 42.1393C190.84 42.1082 190.826 42.086 190.814 42.0729C190.751 42.0522 190.686 42.0515 190.618 42.0688L190.61 42.0708C190.516 42.0971 190.415 42.1573 190.306 42.252C190.156 42.3813 190.031 42.4822 189.929 42.5542C189.812 42.6378 189.714 42.6931 189.636 42.7187C189.51 42.7602 189.375 42.6973 189.327 42.5777C189.332 42.6641 189.291 42.7485 189.214 42.7975C188.857 43.0541 188.459 43.2477 188.02 43.3763C187.58 43.5056 187.099 43.5699 186.58 43.5699C186.258 43.5699 185.974 43.536 185.729 43.4689C185.472 43.3984 185.257 43.2892 185.087 43.1426C185.069 43.1274 185.054 43.1094 185.041 43.0907C184.784 42.727 184.589 42.3654 184.459 42.0065C184.386 41.8067 184.333 41.6083 184.299 41.4112L184.211 41.5287C183.907 41.9236 183.561 42.2797 183.175 42.597C182.78 42.9213 182.356 43.1647 181.905 43.3265C181.451 43.489 180.97 43.5713 180.464 43.5713C180.188 43.5713 179.921 43.5243 179.667 43.4302C179.414 43.3376 179.174 43.1993 178.95 43.0167C178.715 42.8259 178.526 42.5583 178.381 42.2147C178.243 41.8883 178.147 41.4907 178.09 41.0233C178.038 40.5787 177.978 40.1797 177.914 39.8278C177.849 39.4758 177.777 39.1626 177.699 38.8881C177.633 38.6558 177.501 38.4546 177.304 38.2866C177.134 38.1407 176.915 38.0169 176.646 37.9159L173.769 43.0769C173.751 43.1115 173.724 43.1391 173.694 43.1599C173.563 43.2629 173.404 43.3403 173.219 43.3908C173.037 43.4406 172.828 43.4662 172.595 43.4662L172.544 43.4606C172.301 43.4268 172.093 43.4012 171.92 43.3853C171.748 43.3694 171.6 43.3611 171.478 43.3611C171.34 43.3611 171.23 43.2511 171.23 43.1163C171.23 43.0755 171.239 43.0368 171.258 43.0029L171.569 42.2873L173.322 39.3576L176.542 33.9968L177.646 32.1514C177.691 32.076 177.771 32.0331 177.854 32.031L179.981 31.9785C180.118 31.975 180.232 32.0822 180.234 32.217C180.236 32.2661 180.222 32.3125 180.197 32.3512ZM188.841 36.8359C188.584 37.174 188.355 37.49 188.156 37.7839C187.957 38.0784 187.788 38.3502 187.649 38.5984C187.511 38.8446 187.368 39.1336 187.22 39.4634C187.075 39.7863 186.929 40.1403 186.782 40.5248C186.848 40.9929 186.906 41.3739 186.958 41.6663C187.008 41.954 187.049 42.1386 187.079 42.2209C187.095 42.2651 187.139 42.3101 187.208 42.355C187.303 42.4159 187.435 42.4698 187.603 42.5141C187.639 42.5237 187.672 42.541 187.698 42.5638C187.814 42.6503 187.99 42.6676 188.228 42.6157C188.378 42.5832 188.516 42.5459 188.641 42.5044L188.653 42.5009C188.767 42.4629 188.872 42.42 188.969 42.373C189.092 42.3128 189.241 42.3619 189.303 42.4829L189.311 42.5016C189.306 42.4179 189.345 42.337 189.415 42.2886C190.021 41.862 190.574 41.3863 191.072 40.8615L191.086 40.8484C191.578 40.3277 192.018 39.7579 192.405 39.1391C193.178 37.9056 194.027 36.347 194.952 34.4649L194.63 34.1192C194.499 33.9823 194.381 33.8613 194.276 33.7583C194.184 33.6684 194.086 33.5937 193.982 33.5356L193.971 33.5287C193.871 33.4741 193.762 33.4319 193.647 33.4036C193.509 33.3697 193.391 33.3448 193.294 33.3289C193.204 33.3144 193.129 33.3068 193.069 33.3068C192.699 33.3068 192.343 33.3897 192.003 33.5557C191.654 33.7258 191.316 33.983 190.991 34.328C190.648 34.6917 190.298 35.0824 189.942 35.498C189.59 35.9094 189.226 36.3526 188.852 36.8262L188.841 36.8359Z" fill="white"/>
</g>
<defs>
<clipPath id="clip0_6_261">
<rect width="199" height="49" fill="white"/>
</clipPath>
</defs>
</svg>
