<svg width="239" height="59" viewBox="0 0 239 59" fill="none" xmlns="http://www.w3.org/2000/svg">
<g clip-path="url(#clip0_6_205)">
<path fill-rule="evenodd" clip-rule="evenodd" d="M78.811 29.8176C79.3708 31.3372 79.1685 31.9053 78.8514 33.4881C83.1498 32.7531 86.2533 32.0257 90.9412 32.0257C95.5515 32.0257 98.7647 32.7124 103.032 33.4905C102.652 31.6487 102.501 31.6702 103.063 29.9014C101.515 28.924 93.259 28.2879 90.9404 28.2879C86.8107 28.2896 82.6498 28.846 78.811 29.8176ZM78.0429 34.9289C78.9408 34.9073 82.5048 34.1225 84.0199 33.9099C85.535 33.6973 87.7508 33.4889 89.6048 33.4382C92.3501 33.3627 95.0886 33.5188 97.8651 33.9091C99.0092 34.0694 102.818 34.8184 103.694 34.9247C103.699 34.115 103.888 34.174 102.948 33.9548C95.3027 32.1685 88.1066 31.9966 80.3817 33.6417C77.9097 34.0735 78.0429 33.9639 78.0429 34.9289ZM66.6858 20.491C67.4623 20.0201 69.1571 19.1905 70.189 20.2111C70.4799 19.634 70.0862 19.4455 71.5195 19.0128C71.4192 19.8939 71.3686 21.1645 72.1013 21.7474C73.3019 21.7026 73.8002 21.299 73.6518 20.0866C73.3972 19.5128 73.2901 19.4613 72.9158 19.0759C74.1147 18.8501 74.1661 19.2254 74.715 19.7486C75.2943 18.7679 76.1087 18.9032 77.1922 18.7139C77.1593 20.2552 77.4139 20.4113 76.6635 21.3596C77.6888 21.6486 77.5598 22.1535 77.8152 22.92C77.1584 22.5604 77.0067 22.1726 75.8094 22.3171C74.7783 22.8278 74.0009 23.3718 75.0143 24.5476C76.6627 26.4585 81.2873 27.6194 82.0006 22.5089C82.8032 23.2713 83.6396 24.5111 85.6707 24.1889C87.0029 23.978 88.0653 22.7298 88.389 21.5548L89.1462 21.5556C88.7077 23.1534 87.7499 24.0934 86.3132 24.6141C84.7357 25.1862 82.8656 24.3907 82.3277 23.4108C81.8851 26.3605 79.9079 26.8554 76.9476 26.2625C77.9619 26.9468 78.0134 26.5291 78.0462 27.8561C77.1264 27.0854 75.4511 25.6106 74.6088 24.7553C74.0978 24.2354 74.2538 24.1532 74.113 23.3909C73.8449 22.8552 74.1206 23.1642 73.7193 22.8137C72.1257 22.3254 73.0456 23.361 71.1401 22.1519C69.4985 21.1105 68.491 20.7185 66.6858 20.491ZM87.1994 19.3442H94.5372C94.8213 19.3442 95.0532 19.5725 95.0532 19.8516C95.0532 20.1314 94.8213 20.3598 94.5372 20.3598H87.1994C86.9161 20.3598 86.6842 20.1314 86.6842 19.8516C86.6834 19.5725 86.9152 19.3442 87.1994 19.3442ZM87.9464 20.589H93.7893C93.9647 20.589 94.108 20.7302 94.108 20.9021C94.108 21.0748 93.9647 21.216 93.7893 21.216H87.9464C87.7719 21.216 87.6285 21.0748 87.6285 20.9021C87.6285 20.7302 87.7719 20.589 87.9464 20.589ZM87.9464 18.4349H93.7893C93.9647 18.4349 94.108 18.576 94.108 18.7488C94.108 18.9215 93.9647 19.0627 93.7893 19.0627H87.9464C87.7719 19.0627 87.6285 18.9215 87.6285 18.7488C87.6285 18.576 87.7719 18.4349 87.9464 18.4349ZM92.8796 18.2023C92.5094 16.8886 93.791 13.8434 95.6223 13.6125C98.0413 13.2488 99.1171 15.3905 97.6391 17.3495C97.3415 14.4031 94.807 14.3101 93.6713 17.5297C93.5204 17.91 93.501 18.0628 93.3956 18.1193C93.3121 18.1633 93.1393 18.1691 92.8796 18.2023ZM80.1937 21.4327C79.6937 21.4327 79.289 21.838 79.289 22.3379C79.289 22.8378 79.6946 23.243 80.1937 23.243C80.6929 23.243 81.0984 22.8378 81.0984 22.3379C81.0984 21.838 80.6929 21.4327 80.1937 21.4327ZM83.1852 20.6056C82.6852 20.6056 82.2805 21.0108 82.2805 21.5108C82.2805 22.0107 82.686 22.4159 83.1852 22.4159C83.6852 22.4159 84.0899 22.0107 84.0899 21.5108C84.0899 21.0108 83.6843 20.6056 83.1852 20.6056ZM81.1718 19.149C80.6718 19.149 80.2671 19.5543 80.2671 20.0542C80.2671 20.5541 80.6718 20.9594 81.1718 20.9594C81.6717 20.9594 82.0764 20.5541 82.0764 20.0542C82.0773 19.5543 81.6717 19.149 81.1718 19.149ZM101.763 21.4327C102.263 21.4327 102.668 21.838 102.668 22.3379C102.668 22.8378 102.262 23.243 101.763 23.243C101.263 23.243 100.858 22.8378 100.858 22.3379C100.858 21.838 101.263 21.4327 101.763 21.4327ZM98.7714 20.6056C99.2714 20.6056 99.6761 21.0108 99.6761 21.5108C99.6761 22.0107 99.2706 22.4159 98.7714 22.4159C98.2714 22.4159 97.8667 22.0107 97.8667 21.5108C97.8667 21.0108 98.2714 20.6056 98.7714 20.6056ZM100.784 19.149C101.284 19.149 101.689 19.5543 101.689 20.0542C101.689 20.5541 101.284 20.9594 100.784 20.9594C100.284 20.9594 99.8793 20.5541 99.8793 20.0542C99.8793 19.5543 100.285 19.149 100.784 19.149ZM109.327 23.0628C109.827 23.0628 110.231 23.4681 110.231 23.968C110.231 24.4679 109.826 24.8732 109.327 24.8732C108.827 24.8732 108.421 24.4679 108.421 23.968C108.421 23.4681 108.827 23.0628 109.327 23.0628ZM72.8154 23.0628C73.3154 23.0628 73.7201 23.4681 73.7201 23.968C73.7201 24.4679 73.3154 24.8732 72.8154 24.8732C72.3154 24.8732 71.9107 24.4679 71.9107 23.968C71.9107 23.4681 72.3154 23.0628 72.8154 23.0628ZM115.344 20.491C114.568 20.0201 112.873 19.1905 111.841 20.2111C111.55 19.634 111.944 19.4455 110.51 19.0128C110.611 19.8939 110.661 21.1645 109.929 21.7474C108.728 21.7026 108.23 21.299 108.378 20.0866C108.633 19.5128 108.74 19.4613 109.114 19.0759C107.915 18.8501 107.864 19.2254 107.315 19.7486C106.736 18.7679 105.921 18.9032 104.838 18.7139C104.871 20.2552 104.616 20.4113 105.366 21.3596C104.341 21.6486 104.47 22.1535 104.215 22.92C104.872 22.5604 105.023 22.1726 106.221 22.3171C107.252 22.8278 108.029 23.3718 107.016 24.5476C105.367 26.4585 100.743 27.6194 100.029 22.5089C99.2267 23.2713 98.3903 24.5111 96.3592 24.1889C95.027 23.978 93.9647 22.7298 93.6409 21.5548L92.8838 21.5556C93.3222 23.1534 94.28 24.0934 95.7167 24.6141C97.2942 25.1862 99.1643 24.3907 99.7022 23.4108C100.145 26.3605 102.122 26.8554 105.082 26.2625C104.068 26.9468 104.017 26.5291 103.984 27.8561C104.904 27.0854 106.579 25.6106 107.421 24.7553C107.932 24.2354 107.776 24.1532 107.917 23.3909C108.185 22.8552 107.909 23.1642 108.311 22.8137C109.904 22.3254 108.984 23.361 110.89 22.1519C112.532 21.1105 113.54 20.7185 115.344 20.491ZM89.1082 18.2023C89.4784 16.8886 88.1968 13.8434 86.3655 13.6125C83.9465 13.2488 82.8707 15.3905 84.3487 17.3495C84.6463 14.4031 87.1808 14.3101 88.3165 17.5297C88.4674 17.91 88.4868 18.0628 88.5922 18.1193C88.6757 18.1633 88.8485 18.1691 89.1082 18.2023ZM90.1917 18.0495C90.6933 18.0678 91.3088 18.0446 91.8105 18.0628C91.8518 17.3943 91.786 14.874 92.7219 13.5835C93.3964 12.6526 94.2708 12.7007 95.2968 12.0488C94.3778 11.6868 94.1426 11.2242 93.506 10.7974C92.1132 12.21 91.3231 11.2956 92.372 10.138L92.7801 9.69458C91.5634 7.5147 91.5786 7.28965 91.0331 4.74023C90.5466 7.06627 90.3662 7.43 89.104 9.69458C89.3645 10.0733 89.0349 9.63645 89.405 10.0334C90.2026 10.8887 90.2439 11.0025 89.7077 11.4235C89.0829 11.8022 88.7178 11.1437 88.3764 10.7982C87.8536 11.1495 87.1816 11.7225 86.5839 12.1809C89.9632 13.091 90.1394 15.0318 90.1917 18.0495ZM90.5205 22.6916C90.5795 23.2937 89.8527 23.8667 89.9632 24.4729C90.0745 25.0808 90.6453 25.5425 91.0306 25.9959C91.3957 25.5085 91.9681 25.1256 92.087 24.4729C92.1975 23.8667 91.4698 23.2937 91.5297 22.6916C91.8762 23.2505 92.2067 23.8243 93.5119 24.247C93.044 23.576 91.9133 22.0464 91.888 21.5523H91.0272H91.023H90.1621C90.1368 22.0464 89.0062 23.576 88.5383 24.247C89.8434 23.8243 90.1739 23.2513 90.5205 22.6916ZM86.4051 25.9893C86.4102 25.7576 86.4203 25.7385 86.4051 25.4744C84.9237 26.0109 83.7374 25.5159 82.6565 24.9811C82.5149 25.1572 82.5612 25.1024 82.3825 25.3465L81.8598 26.0158C80.6389 27.3263 79.9045 26.9883 79.1162 27.1344L78.4864 27.406C77.8835 28.3809 79.3261 27.6111 79.4307 27.5688C80.1077 27.2897 81.5014 27.5297 82.3387 26.3198L83.0511 26.8845L83.5427 26.2799C83.5595 26.2044 83.6067 26.1919 83.643 26.1512C85.7483 27.176 86.4667 26.3281 88.1808 25.643C88.7625 27.3321 89.8881 25.8722 89.1504 25.4586C88.5045 25.0451 87.115 25.7543 86.4051 25.9893ZM95.479 25.9884C94.6839 25.731 93.3003 24.9081 92.6216 25.5425C91.9665 26.1545 93.3163 27.4566 93.7033 25.6413C95.4309 26.3239 96.1105 27.1818 98.2411 26.1512C98.4603 26.3987 98.677 26.6893 98.892 26.9468L99.5336 26.3032C99.9931 26.9866 100.615 27.2308 101.797 27.4218C102.293 27.5023 103.938 28.2912 103.395 27.4093C102.968 26.7142 101.545 27.7506 99.9316 25.9137L99.2267 24.9786C98.1011 25.535 96.9578 25.9685 95.4781 25.4736L95.479 25.9884ZM78.0429 29.3459C78.9408 29.3243 82.5048 28.5395 84.0199 28.3269C85.535 28.1143 87.7508 27.9059 89.6048 27.8544C92.3501 27.7789 95.0886 27.935 97.8651 28.3253C99.0092 28.4855 102.818 29.2346 103.694 29.3409C103.699 28.5312 103.888 28.5902 102.948 28.3709C95.3027 26.5839 88.1066 26.4128 80.3817 28.0579C77.9097 28.4905 78.0429 28.3817 78.0429 29.3459ZM19.4431 31.8081C19.7374 31.8496 20.0274 31.8862 20.3107 31.9169C20.5653 31.9443 20.8191 31.9684 21.0712 31.9883C21.6311 31.7392 22.2078 31.7633 22.8022 32.0597C24.7262 32.1378 26.3198 32.0539 27.5828 31.8098C28.8239 31.5689 29.7328 31.1753 30.3078 30.6289C31.8954 29.1474 33.1062 27.3993 33.9417 25.3831L33.951 25.3623C34.5294 24.0552 34.8818 22.6642 35.0058 21.1919L35.0066 21.1844C35.0252 20.628 34.9788 20.0774 34.8683 19.536C34.7562 18.9888 34.5766 18.4465 34.3296 17.9092C34.08 17.3661 33.7942 16.8521 33.4738 16.3679C33.1542 15.8863 32.8001 15.432 32.4114 15.0077C32.3069 14.9064 32.1897 14.8026 32.059 14.6979C31.9241 14.59 31.7673 14.4729 31.5885 14.3491C31.2757 14.1158 30.9326 13.8907 30.6113 13.6657C29.6856 13.1816 28.7362 12.8378 27.7624 12.6351L27.7523 12.6326C26.7793 12.4308 25.781 12.3711 24.7591 12.4524C23.7288 12.5346 22.7988 12.7082 21.97 12.9731C21.1471 13.2364 20.4237 13.5901 19.8006 14.0327C19.159 14.4887 18.611 14.9172 18.1565 15.3182C17.7088 15.7135 17.3513 16.0831 17.0849 16.426C16.8159 16.7723 16.5613 17.146 16.3227 17.5455C16.0841 17.9432 15.8606 18.3684 15.6524 18.8193C15.3843 19.4912 15.1887 20.1455 15.0656 20.7841C14.9425 21.4202 14.891 22.0397 14.9096 22.6418C14.9711 23.1002 15.058 23.5246 15.1709 23.9132C15.2831 24.2993 15.4197 24.6465 15.5799 24.9521C15.7418 25.261 15.9348 25.5583 16.1574 25.8431C16.3766 26.123 16.627 26.392 16.9078 26.6503L17.4432 27.0024C17.9044 27.2183 18.3707 27.3811 18.8394 27.4899C19.3116 27.5995 19.7863 27.6551 20.2643 27.6551C21.2095 27.6551 22.1673 27.3977 23.1386 26.8828C23.6015 26.5515 24.0011 26.2467 24.3375 25.971C24.6773 25.692 24.9623 25.4345 25.19 25.1995C25.4075 24.9753 25.6073 24.7121 25.7877 24.4106C25.9699 24.1075 26.1326 23.7637 26.2751 23.3817L26.2776 23.3743C26.3619 23.1268 26.4648 22.8818 26.5853 22.6393C26.6022 22.5139 26.6182 22.3694 26.6326 22.2083C26.6494 22.0165 26.6629 21.8172 26.6722 21.6129C26.6815 21.4128 26.6697 21.1944 26.6351 20.9602C26.5997 20.7227 26.5415 20.4686 26.4606 20.1995C26.3872 19.9545 26.2776 19.7444 26.1334 19.5717C25.9884 19.3982 25.8071 19.2586 25.5913 19.1523C25.5533 19.1341 25.5222 19.1083 25.496 19.0784C25.3965 18.9622 25.3055 18.8675 25.2237 18.7953C25.147 18.728 25.0778 18.679 25.0163 18.6491L24.9893 18.6342C24.7869 18.5071 24.5745 18.4207 24.3544 18.3751C24.1394 18.3311 23.9151 18.3252 23.6824 18.3585C23.3561 18.444 23.0728 18.5121 22.8334 18.5636C22.5804 18.6175 22.3629 18.6566 22.1842 18.6782C22.0206 18.6981 21.8714 18.5827 21.852 18.4216C21.836 18.2929 21.9068 18.1741 22.0189 18.121C22.3916 17.9067 22.7744 17.7323 23.1673 17.5978L23.1824 17.5928C23.5804 17.4583 23.9902 17.3628 24.4084 17.3088C24.8401 17.2532 25.2574 17.2556 25.6579 17.3179C26.0609 17.3802 26.4479 17.5023 26.8155 17.6833C26.8374 17.6941 26.8577 17.7074 26.8762 17.7232L27.7708 18.478C27.7936 18.4971 27.813 18.5196 27.8281 18.5428C28.0549 18.8791 28.2244 19.2329 28.3332 19.6016C28.4428 19.9711 28.4925 20.3556 28.4807 20.7526C28.4698 21.1421 28.4048 21.5515 28.2868 21.9775C28.1704 22.3985 28.0027 22.8353 27.7843 23.2871C27.3678 24.2993 26.8273 25.1813 26.1646 25.9303C25.4969 26.686 24.7051 27.308 23.7912 27.7963L23.7743 27.8046C22.8654 28.2879 21.9085 28.6026 20.906 28.748C19.9018 28.8933 18.8504 28.8692 17.7526 28.6749C17.7214 28.6691 17.6919 28.6591 17.6658 28.6458C16.2822 27.9225 15.1448 27.1643 14.2528 26.3721C13.7857 25.9569 13.4231 25.4653 13.1668 24.8973C12.913 24.3359 12.7629 23.7006 12.7183 22.9939L12.7199 22.9424C12.8068 22.2382 12.9316 21.5647 13.0943 20.9237C13.257 20.2809 13.4585 19.6705 13.698 19.0926L13.7098 19.0676C14.1221 18.1102 14.6204 17.2424 15.2038 16.4651C15.7932 15.6811 16.4711 14.9861 17.2375 14.3824L17.251 14.3724C18.4642 13.5179 19.702 12.8602 20.9608 12.4009C22.2221 11.9409 23.5079 11.6776 24.8173 11.6137C26.1233 11.5498 27.4066 11.6619 28.6671 11.9509C29.925 12.239 31.1636 12.7049 32.3794 13.3468L32.3861 13.351C33.2942 13.8617 34.1618 14.4596 34.9855 15.143L35.0142 15.1704C35.4788 15.6704 35.8742 16.2317 36.2005 16.8529C36.5259 17.4716 36.7814 18.1484 36.9677 18.8816C37.1532 19.6116 37.2645 20.3698 37.3033 21.1562C37.3413 21.9368 37.3058 22.7464 37.1971 23.5819L37.187 23.6275C37.0799 23.9879 36.9602 24.3409 36.8295 24.6855C36.6963 25.0359 36.5546 25.3689 36.4062 25.682L36.3792 25.7277C35.0572 28.0238 33.3465 29.8117 31.2462 31.0914C29.2901 32.2831 26.9968 33.0322 24.3696 33.3369C24.819 33.8152 25.2701 34.3019 25.7237 34.7968L25.738 34.8143C26.34 35.4703 26.9428 36.1371 27.5457 36.8131L27.5499 36.8181C28.92 38.3436 29.5599 39.9006 29.4706 41.4876C29.4267 42.2707 29.2615 43.0712 28.9765 43.8859C28.694 44.6939 28.2902 45.5226 27.7666 46.3722C27.2455 47.2176 26.6309 48.0123 25.9252 48.7555C25.2203 49.4979 24.4261 50.188 23.5433 50.8241C22.9194 51.3531 22.2516 51.8406 21.5417 52.2857C20.8267 52.7333 20.0696 53.1385 19.2703 53.5006L19.2484 53.5097C18.5359 53.7655 17.799 53.9856 17.0385 54.1716C16.2771 54.3576 15.493 54.5087 14.6878 54.625C13.8759 54.7421 13.1061 54.7927 12.3802 54.777C11.661 54.7612 10.9856 54.6798 10.3566 54.532C9.3651 54.4871 8.42416 54.3368 7.53718 54.0811C6.64261 53.8236 5.845 53.4798 5.14604 53.0522C4.33747 52.6635 3.61743 52.1794 2.98592 51.6006C2.35273 51.0201 1.80975 50.345 1.35867 49.5751C0.908433 48.8062 0.575394 48.0023 0.361237 47.1636C0.14961 46.3365 0.0543351 45.4728 0.0728841 44.5751C-0.0350375 43.8377 -0.0232336 43.1028 0.109139 42.3712C0.242355 41.6354 0.496139 40.903 0.871335 40.1747C1.244 39.4514 1.71869 38.7389 2.29371 38.0388L2.30973 38.0214C2.88222 37.3271 3.55336 36.642 4.32398 35.9677C4.34338 35.9511 4.36445 35.937 4.38638 35.9254C4.69075 35.7452 4.99681 35.5434 5.30455 35.3208C5.61904 35.0933 5.93269 34.8466 6.24297 34.5817C6.2691 34.5593 6.29861 34.5419 6.32981 34.5302C7.04142 34.2537 7.75977 34.0295 8.48487 33.8576C9.20575 33.6865 9.93169 33.5686 10.6593 33.5047C12.1365 33.3743 13.8565 33.7388 15.8185 34.5975L15.8564 34.6174C17.5596 35.6762 18.4786 37.0838 18.6143 38.8377C18.6801 39.6964 18.5975 40.5691 18.3656 41.456C18.1354 42.3371 17.7577 43.229 17.235 44.1308C17.2122 44.1707 17.1801 44.2039 17.1439 44.228C16.8193 44.4688 16.5217 44.7121 16.2519 44.9571L15.8337 45.3449L15.3994 45.766C15.3834 45.7817 15.3657 45.795 15.3472 45.8067C14.5335 46.3963 13.8127 46.8513 13.1845 47.1711C12.854 47.3396 12.4999 47.4708 12.1238 47.5655L12.1087 47.5705C11.7385 47.6618 11.3431 47.7191 10.9224 47.7407C10.8558 47.744 10.7934 47.7258 10.7419 47.6917C10.715 47.6751 10.591 47.6502 10.371 47.6203C10.1138 47.5846 9.75295 47.5514 9.29006 47.5207C8.81116 47.4891 8.39634 47.4426 8.04644 47.3836C7.6881 47.323 7.39048 47.2458 7.15608 47.1544L7.11308 47.1337C6.99673 47.0656 6.87953 46.9842 6.76065 46.8904C6.6384 46.794 6.52289 46.6927 6.41581 46.5873C6.37449 46.5466 6.34836 46.4976 6.33571 46.4453C6.24887 46.182 6.19069 45.9146 6.16287 45.6464C6.13336 45.3665 6.13589 45.0858 6.17046 44.8035C6.2084 44.4929 6.32981 44.1931 6.53385 43.9058C6.72777 43.6342 6.99842 43.3718 7.3441 43.1227L7.35591 43.1144C7.73448 42.8379 8.11895 42.6751 8.50595 42.6278C8.89632 42.5796 9.28501 42.6485 9.67032 42.8329C9.79173 42.8678 9.89038 42.9217 9.96542 42.9948C10.0674 43.0936 10.118 43.2165 10.118 43.3602C10.118 43.4607 10.0666 43.5495 9.98903 43.6027L8.84742 44.5494C8.81538 44.6216 8.79599 44.6881 8.79093 44.7479C8.78503 44.8068 8.79346 44.86 8.81454 44.9073L8.82044 44.9156C8.84742 44.9671 8.92077 45.0418 9.03797 45.1382C9.17708 45.2528 9.37438 45.3873 9.62648 45.5417L10.2007 45.7112C10.6366 45.7477 11.0952 45.7386 11.5758 45.6846C12.0733 45.6289 12.5909 45.5243 13.1247 45.3723C14.1777 45.0734 15.0057 44.6067 15.6077 43.9747L15.6364 43.949C16.1785 43.4516 16.6018 42.9276 16.9036 42.3778C17.2046 41.8297 17.385 41.2551 17.4449 40.6563C17.5064 40.0385 17.509 39.4846 17.4533 38.9955C17.3985 38.5196 17.2872 38.1069 17.1211 37.7598C16.95 37.4035 16.7569 37.0921 16.5419 36.8264C16.3395 36.5756 16.1178 36.3663 15.8775 36.1978C15.2308 35.9644 14.4298 35.8174 13.4762 35.7576C12.9678 35.7252 12.3861 35.697 11.7335 35.6713C11.0784 35.6455 10.3507 35.6223 9.55312 35.6023C8.58604 35.9495 7.68979 36.3364 6.86436 36.7624L6.84834 36.7699C6.03302 37.1926 5.28516 37.656 4.60643 38.1601C4.46816 38.3344 4.25485 38.5919 3.96818 38.9315C3.69079 39.2604 3.3333 39.6781 2.89655 40.183C2.49353 40.6489 2.16218 41.2227 1.90334 41.9036C1.64112 42.5929 1.45226 43.3943 1.33843 44.3061C1.22461 45.2129 1.22883 46.0325 1.35192 46.7633C1.47249 47.4833 1.70941 48.1211 2.06185 48.6758C2.42018 49.2405 2.83163 49.7338 3.29536 50.1556C3.76077 50.5783 4.27845 50.9304 4.84757 51.2103L4.87118 51.2235C5.5322 51.6296 6.26236 51.9552 7.06081 52.1985C7.86263 52.4434 8.7395 52.607 9.68887 52.6884C11.5986 52.8537 13.5597 52.7723 15.5714 52.4426C16.7156 52.1129 17.8251 51.6712 18.8976 51.1173C19.9777 50.5592 21.0215 49.8882 22.0282 49.1026L22.0307 49.101C22.9481 48.4026 23.749 47.6369 24.4311 46.8057C25.1132 45.9744 25.6781 45.0775 26.125 44.1159C26.5643 43.1692 26.7818 42.1827 26.7767 41.1571C26.7717 40.1265 26.5415 39.0503 26.0871 37.9317L26.082 37.9192C25.7312 37.029 25.2574 36.2135 24.6605 35.4736C24.0795 34.7528 23.3797 34.1034 22.5636 33.5254H21.5088C21.4481 33.5254 21.3925 33.508 21.3452 33.4773L19.2593 32.3562C19.1151 32.279 19.062 32.1004 19.1404 31.9584C19.2011 31.8488 19.3234 31.7923 19.4431 31.8081ZM37.703 40.4994C37.9314 40.4114 38.1743 40.3449 38.4297 40.3009L38.4407 40.2992C38.7004 40.2552 38.9753 40.2336 39.2636 40.2336C40.0359 40.2336 40.7104 40.3815 41.2855 40.6763C41.5966 40.8357 41.8436 41.0483 42.0257 41.3157C42.2053 41.5781 42.32 41.8903 42.3689 42.2516L42.3714 42.2898C42.3723 44.4921 41.7138 46.4693 40.3976 48.2199C39.7484 49.0835 39.0503 49.8475 38.3058 50.511C37.5596 51.1762 36.7662 51.7401 35.9282 52.201C35.0968 52.6577 34.3793 53.0023 33.7756 53.2324C33.1492 53.4715 32.6365 53.5911 32.2394 53.5911C31.9233 53.5911 31.6121 53.5604 31.3086 53.4981C31.0051 53.4358 30.7108 53.3436 30.4267 53.2207C30.1358 53.0945 29.882 52.94 29.667 52.7574C29.4478 52.5713 29.2699 52.3579 29.1358 52.1179C29.0043 51.8829 28.9065 51.6205 28.8424 51.3323L28.8399 51.3207C28.7783 51.0409 28.748 50.7353 28.748 50.4047C28.748 50.0684 28.8095 49.6449 28.9318 49.135C29.0507 48.6401 29.2294 48.0555 29.468 47.3828C29.9545 46.0126 30.8988 44.7329 32.3018 43.5454C33.6896 42.3703 35.4855 41.3572 37.6878 40.5069L37.703 40.4994ZM41.4355 50.3657L44.1024 47.8636C44.2213 47.7524 44.4101 47.7565 44.5231 47.8736C44.6066 47.96 44.626 48.0829 44.583 48.1858C44.3975 48.7073 44.1302 49.2056 43.782 49.6781C44.0459 49.6598 44.3444 49.6798 44.6766 49.7354C44.7566 49.7487 44.8241 49.7927 44.8679 49.8525C45.0695 50.1249 45.1883 50.4429 45.2263 50.8058C45.26 51.1322 45.2263 51.4934 45.1251 51.8879C45.4969 51.6911 46.1099 51.2128 46.9623 50.4537L48.0053 49.2239C48.2565 48.9249 48.4133 48.7339 48.4749 48.6534L48.5044 48.6202C49.6907 47.284 50.877 45.9071 52.0607 44.4913C53.2723 43.0422 54.4865 41.9319 55.7031 41.1612C56.3026 40.7261 56.9198 40.4147 57.5546 40.2287C58.1895 40.0426 58.8429 39.9804 59.5124 40.0435H61.4238C61.5891 40.0435 61.7223 40.1755 61.7223 40.3374C61.7223 40.3981 61.7037 40.4545 61.6717 40.501C61.1624 41.3987 60.638 42.2914 60.0984 43.1767C59.5495 44.0777 58.9888 44.9671 58.4172 45.8424L56.741 48.42L55.2234 50.7759C55.2562 50.996 55.2723 51.2908 55.2723 51.6587C55.2723 51.8406 55.2976 51.9776 55.3481 52.0698C55.3819 52.1312 55.4316 52.1719 55.4974 52.1918C55.806 52.2608 56.1879 52.2275 56.6441 52.0922C57.1331 51.9469 57.6971 51.6861 58.3337 51.3124C58.9812 50.9321 59.5866 50.5077 60.1473 50.0427C60.6473 49.6283 61.1161 49.1765 61.5528 48.6891C61.6624 48.2979 61.8024 47.8611 61.9735 47.3795C62.46 46.0093 63.4043 44.7296 64.8073 43.5421C66.1951 42.367 67.991 41.3539 70.1933 40.5035L70.211 40.4977C70.4395 40.4097 70.6823 40.3433 70.9378 40.2992L70.9487 40.2976C71.2084 40.2536 71.4833 40.232 71.7716 40.232C72.5439 40.232 73.2184 40.3798 73.7935 40.6746C74.1046 40.834 74.3516 41.0466 74.5337 41.314C74.7133 41.5764 74.828 41.8887 74.8769 42.2499L74.8794 42.2881C74.8803 44.4904 74.2218 46.4677 72.9056 48.2182C72.2564 49.0819 71.5583 49.8459 70.8138 50.5094C70.0676 51.1746 69.2743 51.7384 68.4362 52.1993C67.6048 52.656 66.8873 53.0007 66.2836 53.2307C65.6563 53.4699 65.1446 53.5894 64.7474 53.5894C64.4313 53.5894 64.1201 53.5587 63.8166 53.4964C63.5131 53.4342 63.2188 53.342 62.9347 53.2191C62.6438 53.0928 62.39 52.9384 62.175 52.7557C61.955 52.5697 61.7779 52.3563 61.6439 52.1163C61.5123 51.8812 61.4145 51.6188 61.3504 51.3307L61.3479 51.319C61.2897 51.055 61.2594 50.7668 61.256 50.4571C61.0756 50.663 60.8774 50.8565 60.6616 51.0359C60.3142 51.3249 59.9475 51.5939 59.5621 51.843C59.1802 52.0905 58.7814 52.3164 58.3666 52.5198C57.9374 52.7308 57.5867 52.9018 57.3118 53.0322C57.0226 53.1692 56.7739 53.2838 56.5656 53.3752C56.3523 53.4682 56.1162 53.5388 55.8591 53.5845C55.6045 53.6301 55.3313 53.6526 55.0404 53.6526C54.2824 53.6526 53.6189 53.396 53.0506 52.8827C53.0017 52.8387 52.9713 52.7814 52.9595 52.7216L52.64 51.0865C52.6257 51.0118 52.6408 50.9379 52.6788 50.8781C53.1518 49.9904 53.7141 49.0296 54.365 47.9982C55.0176 46.9634 55.768 45.8432 56.6162 44.6382C57.2621 43.7198 57.6381 43.0413 57.7435 42.6045C57.7772 42.4633 57.7814 42.3654 57.7545 42.313C57.7427 42.2898 57.7047 42.274 57.6423 42.2657C57.4602 42.2416 57.1769 42.2939 56.7933 42.4218L53.7099 45.149C52.941 45.9669 52.1602 46.809 51.3685 47.6751C50.5861 48.5313 49.8416 49.3592 49.1351 50.1573L48.4462 50.9146L47.6672 51.7916C47.3788 52.1188 47.098 52.4019 46.8249 52.6378C46.5483 52.8778 46.2735 53.0762 46.002 53.2332C45.7709 53.391 45.5382 53.5106 45.3047 53.5903C45.0602 53.675 44.8148 53.7173 44.5712 53.7173C44.2398 53.7389 43.9329 53.7016 43.6505 53.6069C43.3596 53.5097 43.0965 53.3511 42.8621 53.1327C42.6168 52.9035 42.4498 52.6029 42.3613 52.2317C42.2896 51.9294 42.2711 51.579 42.3048 51.1812L42.1969 51.2651C41.6084 51.716 40.976 52.1188 40.3015 52.4725L40.2787 52.4833C39.6085 52.8338 38.8985 53.1352 38.1507 53.3876C37.9947 53.44 37.8244 53.3586 37.7713 53.205C37.7333 53.0953 37.7645 52.9782 37.8429 52.9018C37.9576 52.7889 38.1566 52.632 38.439 52.431C38.7097 52.2392 39.0596 52.0058 39.4887 51.7309C39.9078 51.4627 40.283 51.2128 40.6118 50.9827C40.9263 50.7585 41.2028 50.5526 41.4355 50.3657ZM36.359 42.411C35.6364 42.9815 34.983 43.5628 34.3995 44.1524C33.8144 44.7445 33.3018 45.3441 32.8642 45.9503C32.4359 46.5432 32.1146 47.1735 31.9005 47.842C31.6863 48.5097 31.5793 49.2172 31.5793 49.963C31.5793 50.1614 31.5944 50.384 31.6248 50.6273L31.6256 50.6356C31.6568 50.8856 31.7032 51.1555 31.7639 51.4453C31.8077 51.6529 31.9494 51.8123 32.1888 51.9228C32.4772 52.0556 32.8988 52.1221 33.4519 52.1221C33.5632 52.1221 33.7512 52.0673 34.0151 51.9576C34.3068 51.8372 34.6778 51.6529 35.1272 51.4054C35.5589 51.1679 36.0209 50.8017 36.5125 50.3076C37.0099 49.8077 37.5377 49.174 38.095 48.4076C38.6431 47.6535 39.0537 46.897 39.326 46.138C39.5966 45.384 39.7316 44.625 39.7316 43.861C39.7316 43.562 39.686 43.2996 39.5941 43.0737C39.5056 42.8545 39.3707 42.6651 39.1919 42.5065C39.0073 42.3429 38.8007 42.22 38.5731 42.1395C38.3421 42.0573 38.0824 42.0166 37.7957 42.0166C37.5445 42.0166 37.2999 42.0498 37.0622 42.1154C36.8236 42.181 36.59 42.2798 36.359 42.411ZM73.9419 50.3657L76.6087 47.8636C76.7276 47.7524 76.9164 47.7565 77.0294 47.8736L77.0665 47.9201C77.4072 47.3637 77.7705 46.7774 78.1575 46.1604C79.0243 44.7778 79.7477 43.6143 80.3269 42.6718C80.8851 41.7633 81.2662 41.1264 81.4719 40.7626C81.5293 40.6613 81.638 40.6065 81.7485 40.6123L83.6582 40.6746C83.8192 40.6796 83.9465 40.81 83.9465 40.9677C83.9474 41.2601 83.9288 41.4901 83.8926 41.6578C83.8782 41.7234 83.8597 41.7832 83.8378 41.8355C83.8723 41.8347 83.9187 41.8214 83.9777 41.7965L84.0452 41.7658C84.7155 41.4892 85.2703 41.2625 85.7078 41.0882C86.1505 40.9113 86.4953 40.7792 86.7398 40.6912C86.9911 40.6015 87.2483 40.5334 87.5096 40.4886C87.7727 40.4437 88.04 40.4213 88.3106 40.4213C89.244 40.4213 90.0163 40.7842 90.6259 41.5084C90.7641 41.608 90.8965 41.6827 91.0247 41.7326C91.1469 41.7807 91.265 41.8048 91.3771 41.8048C91.512 41.8048 91.7042 41.7583 91.9504 41.667C92.2186 41.5673 92.5448 41.4153 92.9276 41.2111C93.3307 40.996 93.6755 40.834 93.9579 40.7244C94.2648 40.6057 94.511 40.5467 94.6974 40.5467C95.8339 40.5467 96.7799 40.6671 97.5345 40.908C97.9578 41.0425 98.2799 41.26 98.4991 41.5582C98.7175 41.8563 98.8279 42.2258 98.8279 42.6651C98.8279 42.7175 98.8144 42.7664 98.79 42.8088C98.1273 44.238 97.3861 45.6348 96.5666 46.9967C95.7597 48.3386 94.8736 49.6524 93.9099 50.937V51.7849C93.9099 51.917 93.9318 52.0166 93.9748 52.0839L93.9832 52.0972C94.0111 52.1345 94.0515 52.1628 94.1047 52.1827C95.1265 52.1785 95.8432 52.0382 96.2538 51.7625C96.4713 51.6163 96.9199 51.2011 97.5969 50.5185C98.1939 49.9173 98.9527 49.1234 99.8726 48.1402C100.084 47.7324 100.357 47.3238 100.691 46.9153C101.566 45.844 102.324 44.9397 102.964 44.2031C103.296 43.8228 103.743 43.4084 104.306 42.9624C104.858 42.524 105.529 42.049 106.317 41.5391C107.115 41.0217 107.885 40.6339 108.624 40.3748C109.376 40.1116 110.097 39.9804 110.791 39.9804C111.795 39.9804 112.581 40.2013 113.147 40.6422C113.391 40.8332 113.591 40.9769 113.744 41.0724L113.894 41.1629C114.122 41.0715 114.33 40.9968 114.517 40.9378C114.733 40.8706 114.925 40.8249 115.091 40.8017C115.254 40.7784 115.405 40.8905 115.428 41.0508L115.431 41.0923L115.432 41.9726C115.432 42.0382 115.41 42.0988 115.373 42.1478L109.731 51.3257C109.709 51.4544 109.711 51.5806 109.74 51.7027C109.773 51.8414 109.841 51.9784 109.943 52.1121C110.038 52.2375 110.137 52.3222 110.236 52.3637C110.323 52.4003 110.421 52.4061 110.526 52.3803L110.541 52.377C111.27 52.2333 111.942 52.039 112.556 51.7957C113.166 51.5532 113.724 51.2593 114.229 50.9146L114.246 50.9038C114.757 50.5542 115.24 50.2046 115.691 49.8567C116.15 49.5037 116.579 49.1508 116.979 48.7987C117.101 48.6907 117.289 48.7015 117.399 48.8219C117.495 48.9274 117.498 49.0827 117.416 49.1923C117.038 49.6964 116.538 50.1897 115.916 50.6721C115.303 51.1471 114.568 51.6155 113.711 52.0747C111.984 53.0007 110.521 53.464 109.322 53.464C108.596 53.464 108.096 53.3162 107.824 53.0214C107.701 52.8877 107.597 52.7391 107.516 52.578C107.435 52.4185 107.375 52.2466 107.338 52.0639C107.311 51.9319 107.278 51.8256 107.24 51.7467C107.221 51.7094 107.205 51.6828 107.19 51.6662C107.115 51.6421 107.037 51.6404 106.956 51.662L106.946 51.6645C106.834 51.6961 106.712 51.7683 106.581 51.8821C106.401 52.0374 106.25 52.1586 106.129 52.245C105.988 52.3455 105.87 52.4119 105.776 52.4426C105.625 52.4924 105.463 52.4169 105.404 52.2732C105.41 52.377 105.361 52.4792 105.269 52.5373C104.84 52.8454 104.361 53.0779 103.834 53.2324C103.305 53.3876 102.728 53.4649 102.105 53.4649C101.718 53.4649 101.378 53.4242 101.083 53.3436C100.774 53.2589 100.517 53.1277 100.312 52.9517C100.29 52.9334 100.272 52.9118 100.257 52.8894C99.9476 52.4526 99.714 52.0183 99.5572 51.5873C99.3962 51.1447 99.3152 50.707 99.3152 50.2777V50.2702C99.1357 50.4944 98.9561 50.7004 98.7773 50.8881C98.4342 51.2476 98.0404 51.5806 97.5969 51.8862C97.1577 52.1885 96.6686 52.465 96.1316 52.7133C95.5928 52.9625 95.0835 53.1501 94.6046 53.2747C94.1156 53.4018 93.6561 53.4657 93.227 53.4657C92.9791 53.4657 92.727 53.4425 92.4715 53.3968C92.2202 53.3519 91.969 53.2838 91.7203 53.195C91.6756 53.1792 91.6376 53.1535 91.6064 53.1219C91.4302 52.9475 91.2978 52.7466 91.2085 52.5215C91.1199 52.2973 91.0753 52.0523 91.0753 51.7866C91.0753 51.6006 91.0938 51.4187 91.1284 51.2426L91.1351 51.2169C91.1714 51.0458 91.2236 50.8822 91.2911 50.727L91.2987 50.7112C91.3687 50.5534 91.4977 50.3001 91.6848 49.9513C91.8712 49.605 92.1283 49.1417 92.4546 48.562C93.0777 47.5464 93.8753 46.437 94.5406 45.4313C94.8846 44.9073 95.1906 44.3791 95.457 43.8493C95.7058 43.3544 95.9199 42.8595 96.0987 42.3654C95.9773 42.1162 95.8129 41.9269 95.6054 41.799C95.3677 41.652 95.0633 41.5773 94.694 41.5773C94.3989 41.5773 94.1114 41.6155 93.8315 41.691C93.5482 41.7683 93.2674 41.8845 92.99 42.0415L90.883 43.1401L84.7315 53.2598C84.6758 53.3511 84.5772 53.4026 84.476 53.4026C84.3032 53.4034 83.9128 53.3818 83.3057 53.3395L82.5764 53.2922C82.3994 53.2822 82.2662 53.2772 82.1776 53.2772C82.0124 53.2772 81.8792 53.1452 81.8792 52.9832C81.8792 52.9118 81.9053 52.847 81.9474 52.7956C83.1025 51.1181 84.2003 49.3858 85.2391 47.6004C86.2626 45.8424 87.2204 44.0453 88.1133 42.2109C88.0484 42.0556 87.9557 41.9369 87.8359 41.8563C87.685 41.755 87.4801 41.7035 87.2213 41.7035C87.0645 41.7035 86.8992 41.7176 86.7272 41.7459C86.5493 41.7749 86.3587 41.8198 86.1564 41.8796C85.9549 41.9385 85.7584 42.0008 85.5704 42.0647C85.3799 42.1287 85.2104 42.1901 85.0645 42.2483C84.9187 42.3056 84.7838 42.3687 84.6607 42.4368C84.5418 42.5024 84.4372 42.5696 84.3495 42.6386C83.6388 43.2356 82.9567 43.9291 82.3033 44.7163C81.6473 45.5077 81.0183 46.3954 80.4197 47.3787C79.2132 49.3592 78.0749 51.2559 77.0058 53.0679C76.9468 53.1684 76.8355 53.2216 76.7242 53.2133L74.5683 53.151C74.4039 53.1468 74.2749 53.0115 74.2791 52.8495C74.28 52.8005 74.2934 52.7557 74.3162 52.7158C74.6206 52.1171 75.0051 51.4137 75.4679 50.6065C75.2319 50.8332 74.9747 51.0525 74.6965 51.2659C74.108 51.7168 73.4756 52.1196 72.8011 52.4733L72.7783 52.4841C72.108 52.8346 71.3981 53.136 70.6503 53.3885C70.4943 53.4408 70.324 53.3594 70.2708 53.2058C70.2329 53.0962 70.2641 52.9791 70.3425 52.9027C70.4572 52.7897 70.6562 52.6328 70.9386 52.4318C71.2093 52.24 71.5592 52.0066 71.9883 51.7318C72.4073 51.4635 72.7825 51.2136 73.1114 50.9836C73.4326 50.7585 73.7092 50.5526 73.9419 50.3657ZM68.8653 42.411C68.1428 42.9815 67.4893 43.5628 66.9059 44.1524C66.3207 44.7445 65.8081 45.3441 65.3705 45.9503C64.9422 46.5432 64.6201 47.1735 64.406 47.842C64.1918 48.5097 64.0847 49.2172 64.0847 49.963C64.0847 50.1614 64.0999 50.384 64.1303 50.6273L64.1311 50.6356C64.1623 50.8856 64.2087 51.1555 64.2694 51.4453C64.3132 51.6529 64.4549 51.8123 64.6943 51.9228C64.9827 52.0556 65.4043 52.1221 65.9573 52.1221C66.0686 52.1221 66.2567 52.0673 66.5206 51.9576C66.8123 51.8372 67.1833 51.6529 67.6327 51.4054C68.0643 51.1679 68.5264 50.8017 69.0179 50.3076C69.5154 49.8077 70.0432 49.174 70.6005 48.4076C71.1485 47.6535 71.5592 46.897 71.8315 46.138C72.1021 45.384 72.237 44.625 72.237 43.861C72.237 43.562 72.1915 43.2996 72.0996 43.0737C72.0111 42.8545 71.8762 42.6651 71.6974 42.5065C71.5128 42.3429 71.3062 42.22 71.0786 42.1395C70.8475 42.0573 70.5879 42.0166 70.3012 42.0166C70.0499 42.0166 69.8054 42.0498 69.5677 42.1154C69.3307 42.181 69.0963 42.2798 68.8653 42.411ZM104.819 45.3773C104.511 45.7834 104.237 46.1629 103.997 46.5158C103.759 46.8696 103.555 47.196 103.388 47.4941C103.222 47.7897 103.05 48.1368 102.872 48.533C102.699 48.9208 102.523 49.3459 102.346 49.8077C102.426 50.3699 102.496 50.8274 102.558 51.1787C102.619 51.5242 102.668 51.7459 102.704 51.8447C102.723 51.8979 102.775 51.9518 102.858 52.0058C102.972 52.0789 103.13 52.1428 103.332 52.1968C103.376 52.2084 103.415 52.2292 103.447 52.2566C103.585 52.3604 103.798 52.3812 104.083 52.3189C104.263 52.2799 104.428 52.235 104.579 52.1852L104.593 52.181C104.73 52.1354 104.856 52.0839 104.973 52.0274C105.12 51.9552 105.3 52.0141 105.373 52.1594L105.383 52.1819C105.377 52.0814 105.425 51.9842 105.508 51.9261C106.238 51.4121 106.903 50.8399 107.5 50.2121C108.097 49.5826 108.63 48.8925 109.1 48.1435C110.027 46.662 111.047 44.7902 112.159 42.5298L111.771 42.1137C111.626 41.9618 111.483 41.8164 111.345 41.6802C111.236 41.5723 111.118 41.4826 110.993 41.4128L110.979 41.4045C110.859 41.3389 110.729 41.2883 110.59 41.2542C110.424 41.2135 110.283 41.1837 110.166 41.1646C110.058 41.1471 109.967 41.138 109.896 41.138C109.451 41.138 109.024 41.2376 108.614 41.4369C108.195 41.6412 107.79 41.9501 107.399 42.3645C106.988 42.8013 106.567 43.2705 106.14 43.7696C105.716 44.2645 105.28 44.796 104.83 45.3649L104.819 45.3773ZM180.381 13.8193C181.275 13.9472 182.141 14.1772 182.978 14.5053C183.814 14.8333 184.62 15.261 185.393 15.7866C186.956 16.8496 188.047 18.2073 188.665 19.8582L188.675 19.8931C188.762 20.2593 188.829 20.6438 188.872 21.0457C188.916 21.4477 188.939 21.862 188.939 22.2872C188.939 23.5794 188.741 24.7536 188.346 25.8082C187.948 26.8679 187.351 27.8071 186.556 28.6234C185.772 29.4264 184.938 30.1148 184.054 30.687C183.168 31.26 182.228 31.7184 181.234 32.063C179.329 32.7232 177.393 33.0637 175.428 33.0853C174.897 34.3251 174.198 35.5866 173.33 36.8696C172.422 38.214 171.329 39.5842 170.054 40.9769C168.797 42.3512 167.547 43.7098 166.309 45.051C165.087 46.3747 163.875 47.6809 162.675 48.9673C162.655 48.9889 162.632 49.0071 162.608 49.0212L162.605 49.0229C161.449 49.6981 160.235 50.3059 158.966 50.8465C157.697 51.3863 156.376 51.8572 155.004 52.2583C154.257 52.4767 153.51 52.6652 152.763 52.8246C152.418 52.9027 152.07 52.9708 151.717 53.0281C150.059 53.3196 148.403 53.4657 146.747 53.4657C145.044 53.4657 143.415 53.2897 141.858 52.9392C140.302 52.5879 138.821 52.0606 137.416 51.3581L137.377 51.3357C137.062 51.1139 136.769 50.859 136.5 50.5717C136.232 50.286 135.987 49.9671 135.764 49.6158C135.538 49.2588 135.367 48.8884 135.252 48.5056C135.138 48.1211 135.079 47.7258 135.079 47.3222C135.079 46.8621 135.124 46.4262 135.214 46.0176C135.305 45.6082 135.44 45.2237 135.623 44.8633C136.004 44.1134 136.643 43.6218 137.538 43.3901L137.592 43.381C137.858 43.361 138.1 43.3444 138.318 43.3336C138.535 43.322 138.705 43.317 138.828 43.317C139.183 43.317 139.486 43.3951 139.737 43.552C139.992 43.7106 140.186 43.9457 140.316 44.2537C140.348 44.3302 140.346 44.4115 140.314 44.4821C140.248 44.6573 140.093 44.8392 139.851 45.0285C139.632 45.2004 139.326 45.3906 138.938 45.599C138.599 45.7817 138.337 45.981 138.155 46.197L138.141 46.2136C137.977 46.412 137.88 46.6288 137.846 46.8613L137.838 46.897C137.745 47.3064 137.748 47.6942 137.847 48.0579C137.946 48.4267 138.146 48.7779 138.444 49.1101C138.761 49.463 139.132 49.8118 139.553 50.1556C139.97 50.4953 140.432 50.8258 140.938 51.1455C141.615 51.368 142.289 51.5723 142.956 51.7583C143.628 51.946 144.286 52.1129 144.93 52.2583C145.566 52.4019 146.193 52.5107 146.806 52.583C147.415 52.6544 148.013 52.6909 148.599 52.6909C149.669 52.6909 150.71 52.6046 151.721 52.4327C151.989 52.3845 152.257 52.333 152.525 52.2765C154.693 51.8024 156.724 50.9196 158.616 49.63C160.122 48.6027 161.522 47.4576 162.814 46.1961C164.107 44.933 165.292 43.5537 166.366 42.0606C167.443 40.5625 168.471 38.9813 169.448 37.318C170.384 35.7252 171.272 34.0586 172.111 32.3205C171.531 31.8961 171.022 31.5174 170.587 31.1869C170.092 30.8116 169.692 30.5002 169.389 30.2535C169.066 29.9903 168.788 29.7162 168.557 29.4322C168.323 29.1457 168.137 28.8484 167.999 28.542L167.992 28.5254C167.859 28.2281 167.759 27.94 167.693 27.6634C167.624 27.3736 167.589 27.0913 167.589 26.818C167.589 25.2701 168.306 24.154 169.738 23.4714C169.78 23.4515 169.824 23.4423 169.868 23.4423L171.145 23.4415C172.17 23.4415 172.737 23.8418 172.845 24.6415C172.864 24.7818 172.779 24.9114 172.648 24.9562C172.228 25.1007 171.827 25.2494 171.447 25.3997C171.066 25.5508 170.709 25.7036 170.377 25.8564C170.099 25.9843 169.9 26.1637 169.782 26.392C169.659 26.6295 169.616 26.9293 169.653 27.2914L169.655 27.3205C169.656 27.7514 169.715 28.1525 169.834 28.5213C169.952 28.8891 170.128 29.228 170.361 29.5344C170.603 29.8508 170.893 30.1555 171.231 30.4487L171.246 30.4628C171.562 30.7344 171.919 30.9934 172.314 31.2401H172.903C174.125 29.448 175.238 27.8935 176.239 26.5781C177.266 25.2294 178.177 24.1308 178.973 23.2837C179.772 22.4325 180.575 21.6735 181.379 21.0084C182.189 20.3382 183.005 19.7577 183.827 19.2678C183.968 19.1839 184.152 19.2287 184.237 19.3674C184.278 19.4355 184.288 19.5128 184.272 19.5842C184.238 19.7627 184.131 19.9471 183.952 20.1356C183.795 20.3017 183.573 20.481 183.286 20.6729C183.04 20.8373 182.844 20.9917 182.7 21.1338C182.578 21.2542 182.503 21.3546 182.476 21.436C182.467 21.4626 182.455 21.4867 182.439 21.5083L180.628 24.1333L178.768 26.8529C178.148 27.7639 177.614 28.6558 177.166 29.5269C176.776 30.2859 176.452 31.0308 176.194 31.7591C176.331 31.7865 176.465 31.8081 176.595 31.8247L176.604 31.8255C176.827 31.8538 177.051 31.8679 177.275 31.8679C177.704 31.8679 178.131 31.828 178.552 31.7475C178.977 31.6669 179.398 31.5457 179.817 31.3846C180.24 31.2218 180.679 31.0175 181.132 30.7717C181.575 30.5309 182.032 30.2494 182.503 29.928C183.108 29.2288 183.645 28.5819 184.113 27.9881C184.588 27.3844 184.995 26.8338 185.331 26.3372C185.654 25.8597 185.898 25.3565 186.059 24.8283C186.221 24.3002 186.302 23.7463 186.302 23.1666C186.302 22.8469 186.271 22.5172 186.211 22.1793C186.15 21.8396 186.06 21.4917 185.941 21.1379C185.383 19.8798 184.659 18.8418 183.771 18.0279C182.884 17.215 181.827 16.6204 180.604 16.2458C179.356 15.8638 177.955 15.5765 176.402 15.3847C174.844 15.1929 173.134 15.0965 171.273 15.0965H168.558C166.183 15.6371 163.952 16.3463 161.866 17.2266C159.772 18.1102 157.822 19.1648 156.019 20.3897C154.232 21.6046 152.808 23.0288 151.75 24.6614C150.692 26.294 149.995 28.1393 149.662 30.1954L149.652 30.2353C149.572 30.4919 149.511 30.7601 149.471 31.0399C149.43 31.3165 149.41 31.6071 149.41 31.9102C149.41 32.8212 149.694 33.797 150.259 34.8375C150.557 35.2253 150.873 35.5417 151.206 35.7883C151.538 36.0342 151.891 36.2102 152.26 36.3148C152.651 36.4261 153.141 36.5316 153.728 36.6296C154.312 36.7267 154.991 36.8172 155.762 36.8995C156.527 36.8986 157.262 36.8247 157.966 36.6786C158.675 36.5308 159.353 36.3099 160.003 36.0151C160.662 35.7169 161.34 35.3524 162.038 34.9239C162.739 34.4929 163.459 33.9971 164.192 33.4391C164.322 33.3402 164.509 33.3635 164.61 33.4922C164.66 33.5562 164.679 33.6326 164.67 33.7073C164.62 34.1084 164.398 34.5062 164.005 34.8998C163.64 35.2652 163.119 35.6339 162.444 36.0034C161.774 36.3713 161.211 36.6761 160.758 36.9169C160.296 37.1619 159.907 37.3628 159.591 37.5181L159.561 37.5314C158.568 37.8943 157.578 38.1659 156.591 38.3469C155.602 38.5288 154.621 38.6201 153.647 38.6201C152.51 38.6201 151.499 38.4789 150.617 38.1966C150.172 38.0538 149.741 37.8578 149.325 37.6095C148.912 37.362 148.517 37.0639 148.141 36.7159L148.1 36.6694C147.573 36.0175 147.178 35.3291 146.915 34.6042C146.647 33.8701 146.514 33.0978 146.514 32.2881C146.514 31.2525 146.7 30.1838 147.073 29.0826C147.256 28.5412 147.475 27.9757 147.728 27.3861C147.981 26.7981 148.269 26.1861 148.591 25.5525L148.622 25.5035C150.19 23.5129 151.951 21.7707 153.902 20.2776C155.852 18.7861 157.995 17.5413 160.331 16.5448C162.663 15.5499 165.107 14.8042 167.663 14.3084C170.221 13.8119 172.893 13.5636 175.68 13.5636H177.596C177.852 13.5636 178.218 13.5851 178.692 13.6292C179.153 13.6715 179.716 13.7346 180.38 13.8193H180.381ZM182.126 40.4853L183.019 40.4844C183.223 40.4844 183.4 40.5118 183.552 40.5658C183.724 40.6281 183.861 40.7244 183.96 40.8548C184.031 40.9486 184.037 41.0699 183.986 41.167C183.793 41.5258 183.441 42.1137 182.929 42.9309C182.412 43.7555 181.749 44.7894 180.939 46.0325C180.127 47.2807 179.492 48.381 179.035 49.3327C178.584 50.2727 178.306 51.0641 178.205 51.7052L178.203 51.721C178.187 51.7974 178.178 51.8671 178.178 51.9294C178.178 52.0183 178.197 52.0847 178.232 52.1271L178.241 52.137C178.279 52.1761 178.343 52.2059 178.432 52.2242C178.5 52.2383 178.583 52.2458 178.678 52.2458C178.926 52.2458 179.248 52.1852 179.643 52.0631C180.057 51.9361 180.546 51.7434 181.108 51.4868L182.523 50.8366C182.847 50.6863 183.099 50.5667 183.278 50.4795C183.898 49.7238 184.516 48.905 185.131 48.0247C185.76 47.1237 186.387 46.1563 187.012 45.124L188.599 42.4916C189.036 41.7641 189.369 41.2061 189.596 40.8191C189.656 40.7178 189.767 40.6646 189.878 40.6738L191.905 40.736C192.07 40.7402 192.199 40.8756 192.194 41.0375C192.194 41.0823 192.182 41.1255 192.162 41.1629C191.839 41.8405 191.453 42.568 191.006 43.3444C190.555 44.1284 190.04 44.9613 189.465 45.8432L187.792 48.4167L186.271 50.7776C186.284 50.8706 186.295 50.9744 186.303 51.0898C186.315 51.2584 186.32 51.4486 186.32 51.6595C186.32 51.8414 186.346 51.9784 186.396 52.0706C186.43 52.132 186.48 52.1727 186.545 52.1927C186.854 52.2616 187.237 52.2284 187.692 52.093L187.705 52.0897C188.19 51.9444 188.749 51.6844 189.381 51.3132C190.028 50.9329 190.634 50.5085 191.194 50.0435C191.696 49.6275 192.165 49.1765 192.599 48.6907C192.709 48.2996 192.85 47.862 193.02 47.3795C193.506 46.0093 194.451 44.7296 195.854 43.5421C197.241 42.367 199.037 41.3539 201.24 40.5035L201.257 40.4977C201.486 40.4097 201.729 40.3433 201.984 40.2992L201.995 40.2976C202.255 40.2536 202.53 40.232 202.818 40.232C203.201 40.232 203.56 40.2718 203.894 40.3516C204.225 40.4305 204.53 40.5484 204.805 40.7045L204.931 40.7635C204.918 40.5127 204.898 40.2835 204.869 40.0784C204.82 39.7171 204.746 39.4215 204.65 39.1923L204.647 39.184C204.388 38.5886 204.152 37.999 203.941 37.4176L203.94 37.4152C203.689 36.8355 203.471 36.314 203.29 35.8523C203.105 35.3814 202.96 34.9762 202.853 34.6382C202.742 34.2903 202.659 33.9581 202.604 33.6409C202.547 33.3195 202.519 33.0139 202.519 32.7266C202.519 32.4309 202.577 32.0772 202.691 31.6669C202.801 31.2691 202.966 30.8182 203.182 30.3158C203.407 29.7943 203.764 29.2678 204.25 28.7405C204.728 28.2215 205.331 27.6991 206.058 27.1751C206.79 26.6478 207.479 26.2509 208.123 25.9851C208.782 25.7127 209.399 25.5766 209.969 25.5766C210.7 25.5766 211.457 25.6197 212.238 25.7044C212.616 25.746 212.985 25.7775 213.339 25.7974C213.688 25.8174 214.033 25.8282 214.376 25.8282H214.44C215.502 25.8282 216.386 25.545 217.091 24.9803C217.158 24.8914 217.242 24.8225 217.34 24.7744L217.369 24.7619C217.468 24.7179 217.578 24.6963 217.697 24.6963C217.87 24.6963 218.02 24.7279 218.149 24.791C218.264 24.8466 218.354 24.9072 218.419 24.9712C218.52 25.07 218.57 25.1821 218.57 25.305C218.57 25.4279 218.515 25.545 218.403 25.6546L218.382 25.6737C218.317 25.7335 218.229 25.7974 218.119 25.863L217.509 26.3439C217.177 26.6304 216.7 27.0589 216.08 27.6277C215.727 27.9508 215.211 28.165 214.533 28.2688C213.889 28.3668 213.092 28.3676 212.141 28.2713C211.241 28.1791 210.463 28.1069 209.809 28.0521C209.169 27.9989 208.687 27.9674 208.362 27.9574C208.045 27.9474 207.73 27.9699 207.417 28.0247C207.113 28.0778 206.814 28.1617 206.52 28.2754C206.11 28.4681 205.747 28.7388 205.433 29.0859C205.114 29.4405 204.842 29.8749 204.622 30.3881C204.398 30.9112 204.25 31.3896 204.179 31.8222C204.11 32.2399 204.115 32.6153 204.191 32.945C204.277 33.317 204.364 33.6591 204.451 33.9714C204.538 34.2853 204.631 34.5842 204.726 34.8674L204.73 34.8823C204.82 35.1489 204.924 35.4279 205.04 35.7186C205.157 36.0117 205.283 36.3065 205.418 36.6022C205.558 36.9111 205.694 37.2242 205.822 37.5406C205.954 37.8636 206.078 38.1875 206.194 38.5105C206.439 39.1923 206.562 39.9704 206.562 40.8415C206.562 41.1621 206.54 41.4951 206.495 41.838C206.45 42.1785 206.384 42.5215 206.298 42.8628L206.289 42.891C206.223 43.1285 206.14 43.3602 206.043 43.5828C205.949 43.7978 205.841 44.0088 205.718 44.2147C205.586 44.9297 205.374 45.6215 205.084 46.2875C204.788 46.9693 204.41 47.6236 203.95 48.2481L203.933 48.2689C203.285 49.1176 202.592 49.8683 201.856 50.5193C201.112 51.1779 200.319 51.7384 199.478 52.201C198.647 52.6577 197.929 53.0023 197.326 53.2324C196.699 53.4715 196.187 53.5911 195.79 53.5911C195.473 53.5911 195.162 53.5604 194.859 53.4981C194.555 53.4358 194.261 53.3436 193.977 53.2207C193.686 53.0945 193.432 52.94 193.217 52.7574C192.998 52.5713 192.82 52.3579 192.686 52.1179C192.554 51.8829 192.457 51.6205 192.393 51.3323L192.39 51.3207C192.332 51.0558 192.302 50.7685 192.298 50.4587C192.118 50.6655 191.92 50.8582 191.704 51.0375C191.356 51.3257 190.99 51.5956 190.604 51.8447C190.222 52.0922 189.824 52.3181 189.409 52.5223C188.982 52.7324 188.631 52.9035 188.355 53.0347C188.056 53.1767 187.808 53.2913 187.609 53.3777L187.593 53.3843C187.173 53.5645 186.669 53.6559 186.083 53.6559C185.326 53.6559 184.663 53.3984 184.094 52.8861C184.068 52.8628 184.048 52.8362 184.033 52.8072L183.341 51.6031C182.785 51.8572 182.261 52.0905 181.773 52.3014C181.213 52.5448 180.674 52.769 180.159 52.9733C179.649 53.1767 179.173 53.3312 178.736 53.4342C178.29 53.5396 177.886 53.5928 177.526 53.5928C177.266 53.5928 177.014 53.5604 176.77 53.4956C176.527 53.4317 176.293 53.3345 176.068 53.2066C175.811 53.0605 175.618 52.8512 175.491 52.5805C175.371 52.3264 175.311 52.0199 175.311 51.6637C175.311 51.4552 175.335 51.2368 175.381 51.0085C175.425 50.7876 175.494 50.5526 175.585 50.3059C175.676 50.0618 175.882 49.6532 176.204 49.0835C176.517 48.5305 176.948 47.8088 177.495 46.9203C178.045 46.0284 178.684 45.0593 179.412 44.0129C180.141 42.9649 180.966 41.8297 181.885 40.6073C181.945 40.5276 182.035 40.4861 182.126 40.4853ZM199.913 42.411C199.191 42.9815 198.537 43.5628 197.954 44.1524C197.369 44.7445 196.856 45.3441 196.419 45.9503C195.99 46.5432 195.669 47.1735 195.455 47.842C195.241 48.5097 195.134 49.2172 195.134 49.963C195.134 50.1614 195.149 50.384 195.179 50.6273L195.18 50.6356C195.211 50.8856 195.258 51.1555 195.318 51.4453C195.362 51.6529 195.504 51.8123 195.743 51.9228C196.032 52.0556 196.453 52.1221 197.006 52.1221C197.118 52.1221 197.306 52.0673 197.569 51.9576C197.861 51.8372 198.232 51.6529 198.682 51.4054C199.113 51.1679 199.575 50.8017 200.067 50.3076C200.564 49.8077 201.092 49.174 201.649 48.4076C202.197 47.6535 202.608 46.897 202.88 46.138C203.151 45.384 203.286 44.625 203.286 43.861C203.286 43.562 203.24 43.2988 203.148 43.0737C203.06 42.8545 202.925 42.6651 202.746 42.5065C202.562 42.3429 202.355 42.22 202.127 42.1395C201.896 42.0573 201.637 42.0166 201.35 42.0166C201.099 42.0166 200.854 42.0498 200.617 42.1154C200.379 42.181 200.144 42.2798 199.913 42.411ZM204.99 50.3657L207.657 47.8636C207.776 47.7524 207.964 47.7565 208.077 47.8736C208.161 47.9591 208.18 48.0829 208.137 48.1858C207.935 48.7563 207.634 49.2986 207.236 49.8102C206.836 50.3242 206.339 50.8092 205.745 51.2634C205.157 51.7143 204.524 52.1171 203.85 52.4709L203.827 52.4817C203.157 52.8321 202.447 53.1335 201.699 53.386C201.543 53.4383 201.373 53.3569 201.32 53.2033C201.282 53.0937 201.313 52.9766 201.391 52.9002C201.506 52.7872 201.705 52.6303 201.987 52.4293C202.258 52.2375 202.609 52.0042 203.037 51.7293C203.457 51.4611 203.831 51.2111 204.16 50.9811C204.481 50.7585 204.758 50.5526 204.99 50.3657ZM216.417 39.9912C215.844 40.9893 215.299 41.9285 214.781 42.808C214.312 43.6052 213.828 44.4182 213.329 45.2478C213.446 45.2976 213.562 45.3391 213.677 45.3715C213.872 45.4263 214.064 45.4546 214.249 45.4546C214.486 45.4546 214.737 45.4255 215 45.3682C215.27 45.3092 215.558 45.2195 215.863 45.0991C216.483 44.855 217.083 44.61 217.662 44.3667C217.865 44.1865 218.06 44.0063 218.249 43.8244C218.455 43.6268 218.657 43.425 218.855 43.219C219.035 43.033 219.169 42.8487 219.257 42.6668C219.338 42.4974 219.379 42.3296 219.379 42.1627C219.379 42.073 219.347 41.931 219.284 41.7367C219.112 41.5208 218.992 41.3265 218.922 41.1554C218.832 40.9329 218.819 40.7336 218.884 40.56C218.97 40.3059 219.117 40.1124 219.325 39.9812C219.523 39.8558 219.768 39.7927 220.06 39.7927H221.082C221.129 39.7927 221.174 39.8035 221.214 39.8234C221.539 39.9513 221.785 40.144 221.955 40.3989C222.126 40.658 222.211 40.9736 222.211 41.3448C222.211 41.7658 222.02 42.3645 221.638 43.1393C221.434 43.552 221.085 43.9282 220.589 44.267C220.116 44.5917 219.503 44.884 218.754 45.1448L215.06 46.432C215.265 46.6703 215.45 46.9717 215.614 47.3346C215.863 47.8852 216.07 48.5861 216.234 49.4365C216.385 50.2187 216.625 50.8258 216.953 51.2551L216.964 51.2709C217.25 51.6396 217.607 51.8763 218.037 51.9792C218.36 51.8073 218.671 51.6246 218.97 51.4312C219.31 51.2103 219.634 50.9794 219.939 50.7394C220.246 50.4978 220.549 50.2395 220.847 49.9671C221.027 49.8027 221.203 49.6333 221.375 49.4605C221.434 49.1691 221.523 48.8776 221.643 48.5853C221.871 48.0297 222.214 47.4733 222.669 46.9153C223.543 45.844 224.301 44.9397 224.942 44.2031C225.273 43.8228 225.721 43.4084 226.283 42.9624C226.836 42.524 227.507 42.049 228.294 41.5391C229.093 41.0217 229.862 40.6339 230.602 40.3748C231.353 40.1116 232.076 39.9804 232.769 39.9804C233.773 39.9804 234.559 40.2013 235.124 40.6422C235.37 40.8332 235.569 40.9769 235.721 41.0724L235.871 41.1629C236.102 41.0707 236.31 40.9951 236.495 40.9378C236.711 40.8706 236.903 40.8249 237.069 40.8017C237.231 40.7784 237.382 40.8905 237.406 41.0508L237.409 41.0923L237.409 41.9726C237.409 42.0382 237.387 42.0988 237.35 42.1478L231.709 51.3257C231.685 51.4544 231.689 51.5806 231.717 51.7027C231.75 51.8414 231.819 51.9784 231.921 52.1121C232.016 52.2375 232.114 52.3222 232.214 52.3637C232.301 52.4003 232.399 52.4061 232.504 52.3803L232.518 52.377C233.248 52.2333 233.92 52.039 234.533 51.7957C235.144 51.5532 235.702 51.2593 236.206 50.9146L236.223 50.9038C236.735 50.5542 237.217 50.2046 237.669 49.8567C238.128 49.5037 238.557 49.1508 238.957 48.7987C239.079 48.6907 239.267 48.7015 239.376 48.8219C239.473 48.9274 239.476 49.0827 239.393 49.1923C239.016 49.6964 238.516 50.1897 237.893 50.6721C237.28 51.1471 236.545 51.6155 235.689 52.0747C233.962 53.0007 232.498 53.464 231.299 53.464C230.573 53.464 230.073 53.3162 229.802 53.0214C229.679 52.8877 229.575 52.7391 229.493 52.578C229.412 52.4185 229.352 52.2466 229.315 52.0639C229.288 51.9319 229.255 51.8256 229.217 51.7467C229.2 51.7094 229.183 51.6828 229.169 51.667C229.093 51.6421 229.014 51.6413 228.933 51.662L228.923 51.6645C228.811 51.6961 228.69 51.7683 228.558 51.8821C228.379 52.0374 228.228 52.1586 228.106 52.245C227.965 52.3455 227.847 52.4119 227.754 52.4426C227.603 52.4924 227.44 52.4169 227.383 52.2732C227.389 52.377 227.339 52.4783 227.247 52.5373C226.819 52.8454 226.34 53.0779 225.813 53.2324C225.284 53.3876 224.707 53.4649 224.084 53.4649C223.697 53.4649 223.356 53.4242 223.062 53.3436C222.752 53.2589 222.495 53.1277 222.29 52.9517C222.268 52.9334 222.251 52.9118 222.235 52.8894C221.926 52.4526 221.692 52.0183 221.536 51.5873C221.448 51.3473 221.385 51.1089 221.344 50.8723L221.238 51.0135C220.873 51.4876 220.458 51.9153 219.994 52.2965C219.52 52.6859 219.01 52.9782 218.468 53.1726C217.924 53.3677 217.346 53.4665 216.738 53.4665C216.407 53.4665 216.086 53.4101 215.78 53.2971C215.477 53.1859 215.189 53.0198 214.92 52.8005C214.638 52.5713 214.41 52.25 214.237 51.8372C214.071 51.4453 213.955 50.9678 213.888 50.4064C213.824 49.8724 213.753 49.3933 213.675 48.9706C213.597 48.5479 213.511 48.1717 213.418 47.842C213.339 47.563 213.179 47.3214 212.943 47.1196C212.739 46.9443 212.475 46.7957 212.153 46.6745L208.698 52.8728C208.675 52.9143 208.643 52.9475 208.607 52.9724C208.45 53.0962 208.26 53.1892 208.037 53.2498C207.818 53.3096 207.567 53.3403 207.287 53.3403L207.226 53.3337C206.934 53.293 206.685 53.2623 206.477 53.2432C206.27 53.2241 206.093 53.2141 205.946 53.2141C205.781 53.2141 205.648 53.0821 205.648 52.9201C205.648 52.8711 205.659 52.8246 205.681 52.7839L206.056 51.9244L208.16 48.4059L212.028 41.9676L213.354 39.7512C213.408 39.6606 213.504 39.6092 213.603 39.6067L216.158 39.5436C216.323 39.5394 216.459 39.6681 216.462 39.8301C216.464 39.889 216.447 39.9447 216.417 39.9912ZM226.798 45.3773C226.49 45.7834 226.216 46.1629 225.976 46.5158C225.738 46.8696 225.535 47.196 225.367 47.4941C225.202 47.7897 225.03 48.1368 224.852 48.533C224.678 48.9208 224.503 49.3459 224.326 49.8077C224.405 50.3699 224.476 50.8274 224.537 51.1787C224.598 51.5242 224.647 51.7459 224.683 51.8447C224.702 51.8979 224.755 51.9518 224.838 52.0058C224.952 52.0789 225.111 52.1437 225.312 52.1968C225.356 52.2084 225.395 52.2292 225.427 52.2566C225.565 52.3604 225.777 52.3812 226.063 52.3189C226.243 52.2799 226.408 52.235 226.559 52.1852L226.573 52.181C226.71 52.1354 226.836 52.0839 226.953 52.0274C227.1 51.9552 227.28 52.0141 227.353 52.1594L227.363 52.1819C227.357 52.0814 227.405 51.9842 227.488 51.9261C228.217 51.4137 228.88 50.8424 229.478 50.2121L229.495 50.1963C230.086 49.571 230.615 48.8867 231.08 48.1435C232.007 46.662 233.028 44.7902 234.139 42.5298L233.751 42.1146C233.594 41.9501 233.453 41.8048 233.327 41.6811C233.216 41.5731 233.098 41.4834 232.974 41.4137L232.96 41.4054C232.84 41.3398 232.71 41.2891 232.571 41.2551C232.405 41.2144 232.264 41.1845 232.147 41.1654C232.039 41.1479 231.948 41.1388 231.877 41.1388C231.432 41.1388 231.005 41.2385 230.596 41.4378C230.177 41.642 229.771 41.951 229.381 42.3654C228.97 42.8022 228.549 43.2714 228.121 43.7704C227.698 44.2645 227.261 44.7969 226.812 45.3657L226.798 45.3773Z" fill="#65644D"/>
</g>
<defs>
<clipPath id="clip0_6_205">
<rect width="239" height="58.8492" fill="white"/>
</clipPath>
</defs>
</svg>
